<svg width="20" height="21" viewBox="0 0 20 21" fill="none" xmlns="http://www.w3.org/2000/svg">
<path d="M10.5 7.00006H9.00001V13.0001L13.75 15.8501L14.5 14.6201L10.5 12.2501V7.00006ZM15.337 0.810059L19.944 4.65506L18.664 6.19006L14.054 2.34706L15.337 0.810059ZM4.66301 0.810059L5.94501 2.34606L1.33701 6.19006L0.0570068 4.65406L4.66301 0.810059ZM10 3.00006C5.03001 3.00006 1.00001 7.03006 1.00001 12.0001C1.00001 16.9701 5.03001 21.0001 10 21.0001C14.97 21.0001 19 16.9701 19 12.0001C19 7.03006 14.97 3.00006 10 3.00006ZM10 19.0001C6.14001 19.0001 3.00001 15.8601 3.00001 12.0001C3.00001 8.14006 6.14001 5.00006 10 5.00006C13.86 5.00006 17 8.14006 17 12.0001C17 15.8601 13.86 19.0001 10 19.0001Z" fill="#285D9A"/>
</svg>
