<svg width="20" height="21" viewBox="0 0 20 21" fill="none" xmlns="http://www.w3.org/2000/svg">
<path d="M10.5 6.5H9.00001V12.5L13.75 15.35L14.5 14.12L10.5 11.75V6.5ZM15.337 0.309998L19.944 4.155L18.664 5.69L14.054 1.847L15.337 0.309998ZM4.66301 0.309998L5.94501 1.846L1.33701 5.69L0.0570068 4.154L4.66301 0.309998ZM10 2.5C5.03001 2.5 1.00001 6.53 1.00001 11.5C1.00001 16.47 5.03001 20.5 10 20.5C14.97 20.5 19 16.47 19 11.5C19 6.53 14.97 2.5 10 2.5ZM10 18.5C6.14001 18.5 3.00001 15.36 3.00001 11.5C3.00001 7.64 6.14001 4.5 10 4.5C13.86 4.5 17 7.64 17 11.5C17 15.36 13.86 18.5 10 18.5Z" fill="#285D9A"/>
</svg>
