<svg width="179" height="25" viewBox="0 0 179 25" fill="none" xmlns="http://www.w3.org/2000/svg">
<g clip-path="url(#clip0_1278_8663)">
<path d="M18 2.5H6C4.9 2.5 4 3.4 4 4.5V20.5C4 21.6 4.9 22.5 6 22.5H18C19.1 22.5 20 21.6 20 20.5V4.5C20 3.4 19.1 2.5 18 2.5ZM9 4.5H11V9.5L10 8.75L9 9.5V4.5ZM18 20.5H6V4.5H7V13.5L10 11.25L13 13.5V4.5H18V20.5Z" fill="#F1F1F1"/>
</g>
<g clip-path="url(#clip1_1278_8663)">
<path d="M48 13.5C50.21 13.5 52 11.71 52 9.5C52 7.29 50.21 5.5 48 5.5C45.79 5.5 44 7.29 44 9.5C44 11.71 45.79 13.5 48 13.5ZM48 7.5C49.1 7.5 50 8.4 50 9.5C50 10.6 49.1 11.5 48 11.5C46.9 11.5 46 10.6 46 9.5C46 8.4 46.9 7.5 48 7.5ZM48 15.5C45.33 15.5 40 16.84 40 19.5V21.5H56V19.5C56 16.84 50.67 15.5 48 15.5ZM42 19.5C42.22 18.78 45.31 17.5 48 17.5C50.7 17.5 53.8 18.79 54 19.5H42ZM54.08 7.55C54.92 8.73 54.92 10.26 54.08 11.44L55.76 13.13C57.78 11.11 57.78 8.06 55.76 5.86L54.08 7.55ZM59.07 2.5L57.44 4.13C60.21 7.15 60.21 11.69 57.44 14.87L59.07 16.5C62.97 12.61 62.98 6.55 59.07 2.5Z" fill="#F1F1F1"/>
</g>
<g clip-path="url(#clip2_1278_8663)">
<path d="M90.45 16.5H92.54L87.43 3.5H85.57L80.46 16.5H82.55L83.67 13.5H89.31L90.45 16.5ZM84.43 11.5L86.5 5.98L88.57 11.5H84.43ZM99.59 12.09L91.5 20.18L87.83 16.5L86.42 17.91L91.51 23L101 13.5L99.59 12.09Z" fill="#F1F1F1"/>
</g>
<g clip-path="url(#clip3_1278_8663)">
<path d="M129 5.5C125.13 5.5 122 8.63 122 12.5H124C124 9.74 126.24 7.5 129 7.5C131.76 7.5 134 9.74 134 12.5H136C136 8.63 132.87 5.5 129 5.5ZM130 14.79C130.88 14.4 131.5 13.53 131.5 12.5C131.5 11.12 130.38 10 129 10C127.62 10 126.5 11.12 126.5 12.5C126.5 13.52 127.12 14.4 128 14.79V18.09L124.59 21.5L126 22.91L129 19.91L132 22.91L133.41 21.5L130 18.09V14.79ZM129 1.5C122.93 1.5 118 6.43 118 12.5H120C120 7.53 124.03 3.5 129 3.5C133.97 3.5 138 7.53 138 12.5H140C140 6.43 135.07 1.5 129 1.5Z" fill="#F1F1F1"/>
</g>
<g clip-path="url(#clip4_1278_8663)">
<path d="M173.25 23.4999H166.973C165.938 23.4999 164.922 23.0687 164.203 22.3212L157.208 15.0283L159.191 13.2745C159.785 12.7474 160.658 12.642 161.357 13.0158L163.667 14.2424V5.09035C163.667 3.76785 164.74 2.69452 166.063 2.69452C166.225 2.69452 166.388 2.71369 166.551 2.74244C166.638 1.4966 167.673 0.509521 168.938 0.509521C169.762 0.509521 170.48 0.921605 170.912 1.5541C171.19 1.4391 171.496 1.3816 171.813 1.3816C173.135 1.3816 174.208 2.45494 174.208 3.77744V4.04577C174.362 4.01702 174.525 3.99785 174.688 3.99785C176.01 3.99785 177.083 5.07119 177.083 6.39369V19.6666C177.083 21.7845 175.368 23.4999 173.25 23.4999ZM159.968 15.1433L165.583 20.9891C165.948 21.3629 166.446 21.5833 166.963 21.5833H173.25C174.304 21.5833 175.167 20.7208 175.167 19.6666V6.39369C175.167 6.12535 174.956 5.91452 174.688 5.91452C174.419 5.91452 174.208 6.12535 174.208 6.39369V11.9999H172.292V3.77744C172.292 3.5091 172.081 3.29827 171.813 3.29827C171.544 3.29827 171.333 3.5091 171.333 3.77744V11.9999H169.417V2.90535C169.417 2.63702 169.206 2.42619 168.938 2.42619C168.669 2.42619 168.458 2.63702 168.458 2.90535V11.9999H166.542V5.09035C166.542 4.82202 166.331 4.61119 166.063 4.61119C165.794 4.61119 165.583 4.8316 165.583 5.09035V17.4241L160.456 14.712L159.968 15.1433Z" fill="#F1F1F1"/>
</g>
<defs>
<clipPath id="clip0_1278_8663">
<rect width="24" height="24" fill="white" transform="translate(0 0.5)"/>
</clipPath>
<clipPath id="clip1_1278_8663">
<rect width="24" height="24" fill="white" transform="translate(39 0.5)"/>
</clipPath>
<clipPath id="clip2_1278_8663">
<rect width="24" height="24" fill="white" transform="translate(78 0.5)"/>
</clipPath>
<clipPath id="clip3_1278_8663">
<rect width="24" height="24" fill="white" transform="translate(117 0.5)"/>
</clipPath>
<clipPath id="clip4_1278_8663">
<rect width="23" height="23" fill="white" transform="translate(156 0.5)"/>
</clipPath>
</defs>
</svg>
