<svg width="333" height="53" viewBox="0 0 333 53" fill="none" xmlns="http://www.w3.org/2000/svg">
<g clip-path="url(#clip0_1278_8711)">
<path d="M12 7.13L12.97 9.42L13.44 10.53L14.64 10.63L17.11 10.84L15.23 12.47L14.32 13.26L14.59 14.44L15.15 16.85L13.03 15.57L12 14.93L10.97 15.55L8.85 16.83L9.41 14.42L9.68 13.24L8.77 12.45L6.89 10.82L9.36 10.61L10.56 10.51L11.03 9.4L12 7.13ZM12 2L9.19 8.63L2 9.24L7.46 13.97L5.82 21L12 17.27L18.18 21L16.54 13.97L22 9.24L14.81 8.63L12 2Z" fill="#285D9A"/>
</g>
<path d="M36.6399 17.5H34.3331L37.848 7.31818H40.6222L44.1321 17.5H41.8253L39.2749 9.64489H39.1953L36.6399 17.5ZM36.4957 13.4979H41.9446V15.1783H36.4957V13.4979ZM47.7763 17.6243C47.1963 17.6243 46.6709 17.4751 46.2003 17.1768C45.733 16.8752 45.3617 16.4328 45.0866 15.8494C44.8149 15.2628 44.679 14.5436 44.679 13.6918C44.679 12.8168 44.8198 12.0893 45.1016 11.5092C45.3833 10.9259 45.7578 10.4901 46.2251 10.2017C46.6958 9.91004 47.2112 9.7642 47.7713 9.7642C48.1989 9.7642 48.5552 9.83712 48.8402 9.98295C49.1286 10.1255 49.3606 10.3045 49.5362 10.5199C49.7152 10.732 49.8511 10.9408 49.9439 11.1463H50.0085V7.31818H52.1214V17.5H50.0334V16.277H49.9439C49.8445 16.4891 49.7036 16.6996 49.5213 16.9084C49.3423 17.1139 49.1087 17.2846 48.8203 17.4205C48.5353 17.5563 48.1873 17.6243 47.7763 17.6243ZM48.4474 15.9389C48.7888 15.9389 49.0772 15.8461 49.3125 15.6605C49.5511 15.4716 49.7334 15.2081 49.8594 14.87C49.9886 14.532 50.0533 14.1359 50.0533 13.6818C50.0533 13.2277 49.9903 12.8333 49.8643 12.4986C49.7384 12.1638 49.5561 11.9053 49.3175 11.723C49.0788 11.5407 48.7888 11.4496 48.4474 11.4496C48.0994 11.4496 47.8061 11.544 47.5675 11.733C47.3288 11.9219 47.1482 12.1837 47.0256 12.5185C46.9029 12.8532 46.8416 13.241 46.8416 13.6818C46.8416 14.1259 46.9029 14.5187 47.0256 14.8601C47.1515 15.1982 47.3321 15.4633 47.5675 15.6555C47.8061 15.8445 48.0994 15.9389 48.4474 15.9389ZM53.8627 17.5V9.86364H55.8812V11.2109H55.9707C56.1298 10.7635 56.3949 10.4105 56.7662 10.152C57.1374 9.89347 57.5815 9.7642 58.0985 9.7642C58.6222 9.7642 59.068 9.89512 59.4359 10.157C59.8038 10.4155 60.0491 10.7668 60.1717 11.2109H60.2512C60.407 10.7734 60.6887 10.4238 61.0964 10.1619C61.5074 9.89678 61.993 9.7642 62.5531 9.7642C63.2657 9.7642 63.844 9.99124 64.2882 10.4453C64.7356 10.8961 64.9593 11.5357 64.9593 12.3643V17.5H62.8464V12.782C62.8464 12.3577 62.7337 12.0395 62.5083 11.8274C62.283 11.6153 62.0012 11.5092 61.6632 11.5092C61.2787 11.5092 60.9788 11.6319 60.7633 11.8771C60.5479 12.1191 60.4402 12.4389 60.4402 12.8366V17.5H58.3869V12.7372C58.3869 12.3627 58.2792 12.0644 58.0637 11.8423C57.8516 11.6203 57.5716 11.5092 57.2235 11.5092C56.9882 11.5092 56.7761 11.5689 56.5872 11.6882C56.4016 11.8042 56.2541 11.9683 56.1447 12.1804C56.0353 12.3892 55.9806 12.6345 55.9806 12.9162V17.5H53.8627ZM66.6323 17.5V9.86364H68.7502V17.5H66.6323ZM67.6962 8.87926C67.3813 8.87926 67.1112 8.77486 66.8858 8.56605C66.6638 8.35393 66.5527 8.10038 66.5527 7.8054C66.5527 7.51373 66.6638 7.26349 66.8858 7.05469C67.1112 6.84257 67.3813 6.73651 67.6962 6.73651C68.0111 6.73651 68.2795 6.84257 68.5016 7.05469C68.727 7.26349 68.8397 7.51373 68.8397 7.8054C68.8397 8.10038 68.727 8.35393 68.5016 8.56605C68.2795 8.77486 68.0111 8.87926 67.6962 8.87926ZM72.5646 13.0852V17.5H70.4467V9.86364H72.4652V11.2109H72.5547C72.7237 10.7668 73.0071 10.4155 73.4048 10.157C73.8026 9.89512 74.2848 9.7642 74.8516 9.7642C75.3819 9.7642 75.8442 9.88021 76.2386 10.1122C76.633 10.3442 76.9396 10.6757 77.1584 11.1065C77.3771 11.5341 77.4865 12.0445 77.4865 12.6378V17.5H75.3686V13.0156C75.3719 12.5483 75.2526 12.1837 75.0107 11.9219C74.7687 11.6567 74.4356 11.5241 74.0114 11.5241C73.7263 11.5241 73.4744 11.5855 73.2557 11.7081C73.0402 11.8307 72.8712 12.0097 72.7486 12.245C72.6293 12.477 72.5679 12.7571 72.5646 13.0852Z" fill="black"/>
<path d="M131.233 17.5V7.31818H132.466V16.4062H137.199V17.5H131.233ZM138.748 20.3636C138.549 20.3636 138.371 20.3471 138.216 20.3139C138.06 20.2841 137.952 20.2543 137.892 20.2244L138.191 19.1903C138.476 19.2633 138.728 19.2898 138.946 19.2699C139.165 19.25 139.359 19.1522 139.528 18.9766C139.7 18.8042 139.858 18.5241 140 18.1364L140.219 17.5398L137.395 9.86364H138.668L140.776 15.9489H140.855L142.963 9.86364H144.236L140.995 18.6136C140.849 19.008 140.668 19.3345 140.453 19.593C140.237 19.8549 139.987 20.0488 139.702 20.1747C139.42 20.3007 139.102 20.3636 138.748 20.3636ZM149.881 17.5V7.31818H151.114V16.4062H155.847V17.5H149.881ZM157.597 17.5V9.86364H158.771V17.5H157.597ZM158.194 8.59091C157.965 8.59091 157.768 8.51302 157.602 8.35724C157.44 8.20147 157.359 8.0142 157.359 7.79545C157.359 7.5767 157.44 7.38944 157.602 7.23366C157.768 7.07789 157.965 7 158.194 7C158.423 7 158.618 7.07789 158.781 7.23366C158.946 7.38944 159.029 7.5767 159.029 7.79545C159.029 8.0142 158.946 8.20147 158.781 8.35724C158.618 8.51302 158.423 8.59091 158.194 8.59091ZM164.121 17.6591C163.385 17.6591 162.751 17.4967 162.217 17.1719C161.687 16.8438 161.278 16.3864 160.989 15.7997C160.704 15.2098 160.562 14.5237 160.562 13.7415C160.562 12.9593 160.704 12.2699 160.989 11.6733C161.278 11.0734 161.679 10.6061 162.192 10.2713C162.709 9.93324 163.313 9.7642 164.002 9.7642C164.4 9.7642 164.792 9.83049 165.18 9.96307C165.568 10.0956 165.921 10.3111 166.239 10.6094C166.557 10.9044 166.811 11.2955 167 11.7827C167.189 12.2699 167.283 12.8698 167.283 13.5824V14.0795H161.397V13.0653H166.09C166.09 12.6345 166.004 12.25 165.831 11.9119C165.662 11.5739 165.421 11.3071 165.106 11.1115C164.794 10.916 164.426 10.8182 164.002 10.8182C163.535 10.8182 163.13 10.9342 162.789 11.1662C162.451 11.3949 162.191 11.6932 162.008 12.0611C161.826 12.429 161.735 12.8234 161.735 13.2443V13.9205C161.735 14.4972 161.834 14.986 162.033 15.3871C162.235 15.7848 162.515 16.0881 162.873 16.2969C163.231 16.5024 163.647 16.6051 164.121 16.6051C164.43 16.6051 164.708 16.562 164.956 16.4759C165.208 16.3864 165.425 16.2538 165.608 16.0781C165.79 15.8991 165.931 15.6771 166.03 15.4119L167.164 15.7301C167.045 16.1146 166.844 16.4527 166.562 16.7443C166.281 17.0327 165.933 17.258 165.518 17.4205C165.104 17.5795 164.638 17.6591 164.121 17.6591ZM170.241 12.9062V17.5H169.068V9.86364H170.202V11.0568H170.301C170.48 10.669 170.752 10.3575 171.116 10.1222C171.481 9.88352 171.952 9.7642 172.528 9.7642C173.045 9.7642 173.498 9.87027 173.885 10.0824C174.273 10.2912 174.575 10.6094 174.79 11.0369C175.006 11.4612 175.113 11.9981 175.113 12.6477V17.5H173.94V12.7273C173.94 12.1274 173.784 11.66 173.473 11.3253C173.161 10.9872 172.734 10.8182 172.19 10.8182C171.816 10.8182 171.481 10.8994 171.186 11.0618C170.894 11.2242 170.664 11.4612 170.495 11.7727C170.326 12.0843 170.241 12.4621 170.241 12.9062ZM181.354 17.5V7.31818H182.587V16.4062H187.32V17.5H181.354ZM189.07 17.5V9.86364H190.243V17.5H189.07ZM189.667 8.59091C189.438 8.59091 189.241 8.51302 189.075 8.35724C188.913 8.20147 188.831 8.0142 188.831 7.79545C188.831 7.5767 188.913 7.38944 189.075 7.23366C189.241 7.07789 189.438 7 189.667 7C189.895 7 190.091 7.07789 190.253 7.23366C190.419 7.38944 190.502 7.5767 190.502 7.79545C190.502 8.0142 190.419 8.20147 190.253 8.35724C190.091 8.51302 189.895 8.59091 189.667 8.59091ZM195.594 17.6591C194.858 17.6591 194.223 17.4967 193.69 17.1719C193.16 16.8438 192.75 16.3864 192.462 15.7997C192.177 15.2098 192.034 14.5237 192.034 13.7415C192.034 12.9593 192.177 12.2699 192.462 11.6733C192.75 11.0734 193.151 10.6061 193.665 10.2713C194.182 9.93324 194.785 9.7642 195.475 9.7642C195.872 9.7642 196.265 9.83049 196.653 9.96307C197.041 10.0956 197.394 10.3111 197.712 10.6094C198.03 10.9044 198.284 11.2955 198.472 11.7827C198.661 12.2699 198.756 12.8698 198.756 13.5824V14.0795H192.869V13.0653H197.563C197.563 12.6345 197.477 12.25 197.304 11.9119C197.135 11.5739 196.893 11.3071 196.578 11.1115C196.267 10.916 195.899 10.8182 195.475 10.8182C195.007 10.8182 194.603 10.9342 194.262 11.1662C193.923 11.3949 193.663 11.6932 193.481 12.0611C193.299 12.429 193.208 12.8234 193.208 13.2443V13.9205C193.208 14.4972 193.307 14.986 193.506 15.3871C193.708 15.7848 193.988 16.0881 194.346 16.2969C194.704 16.5024 195.12 16.6051 195.594 16.6051C195.902 16.6051 196.181 16.562 196.429 16.4759C196.681 16.3864 196.898 16.2538 197.08 16.0781C197.263 15.8991 197.404 15.6771 197.503 15.4119L198.637 15.7301C198.517 16.1146 198.317 16.4527 198.035 16.7443C197.753 17.0327 197.405 17.258 196.991 17.4205C196.577 17.5795 196.111 17.6591 195.594 17.6591ZM201.714 12.9062V17.5H200.541V9.86364H201.674V11.0568H201.774C201.953 10.669 202.224 10.3575 202.589 10.1222C202.954 9.88352 203.424 9.7642 204.001 9.7642C204.518 9.7642 204.97 9.87027 205.358 10.0824C205.746 10.2912 206.048 10.6094 206.263 11.0369C206.478 11.4612 206.586 11.9981 206.586 12.6477V17.5H205.413V12.7273C205.413 12.1274 205.257 11.66 204.945 11.3253C204.634 10.9872 204.206 10.8182 203.663 10.8182C203.288 10.8182 202.954 10.8994 202.659 11.0618C202.367 11.2242 202.137 11.4612 201.968 11.7727C201.798 12.0843 201.714 12.4621 201.714 12.9062ZM215.969 17.5H212.827V7.31818H216.108C217.096 7.31818 217.941 7.52202 218.643 7.92969C219.346 8.33404 219.885 8.91572 220.259 9.67472C220.634 10.4304 220.821 11.3352 220.821 12.3892C220.821 13.4498 220.632 14.3629 220.254 15.1286C219.876 15.8909 219.326 16.4775 218.604 16.8885C217.881 17.2962 217.003 17.5 215.969 17.5ZM214.06 16.4062H215.889C216.731 16.4062 217.429 16.2438 217.982 15.919C218.536 15.5942 218.948 15.1319 219.22 14.532C219.492 13.9321 219.628 13.2178 219.628 12.3892C219.628 11.5672 219.494 10.8596 219.225 10.2663C218.957 9.66974 218.556 9.21236 218.022 8.89418C217.488 8.57268 216.824 8.41193 216.028 8.41193H214.06V16.4062ZM227.543 14.3778V9.86364H228.716V17.5H227.543V16.2074H227.463C227.284 16.5952 227.006 16.925 226.628 17.1967C226.25 17.4652 225.773 17.5994 225.196 17.5994C224.719 17.5994 224.295 17.495 223.923 17.2862C223.552 17.0741 223.26 16.7559 223.048 16.3317C222.836 15.9041 222.73 15.3655 222.73 14.7159V9.86364H223.903V14.6364C223.903 15.1932 224.059 15.6373 224.371 15.9688C224.686 16.3002 225.087 16.4659 225.574 16.4659C225.866 16.4659 226.162 16.3913 226.464 16.2422C226.769 16.093 227.024 15.8643 227.229 15.5561C227.438 15.2479 227.543 14.8551 227.543 14.3778ZM232.038 12.9062V17.5H230.865V9.86364H231.998V11.0568H232.098C232.277 10.669 232.549 10.3575 232.913 10.1222C233.278 9.88352 233.748 9.7642 234.325 9.7642C234.842 9.7642 235.295 9.87027 235.682 10.0824C236.07 10.2912 236.372 10.6094 236.587 11.0369C236.803 11.4612 236.91 11.9981 236.91 12.6477V17.5H235.737V12.7273C235.737 12.1274 235.581 11.66 235.27 11.3253C234.958 10.9872 234.531 10.8182 233.987 10.8182C233.613 10.8182 233.278 10.8994 232.983 11.0618C232.691 11.2242 232.461 11.4612 232.292 11.7727C232.123 12.0843 232.038 12.4621 232.038 12.9062ZM242.137 20.5227C241.57 20.5227 241.083 20.4498 240.675 20.304C240.267 20.1615 239.928 19.9725 239.656 19.7372C239.387 19.5052 239.174 19.2566 239.015 18.9915L239.949 18.3352C240.055 18.4744 240.19 18.6335 240.352 18.8125C240.514 18.9948 240.736 19.1522 241.018 19.2848C241.303 19.4207 241.676 19.4886 242.137 19.4886C242.753 19.4886 243.262 19.3395 243.663 19.0412C244.064 18.7429 244.265 18.2756 244.265 17.6392V16.0881H244.165C244.079 16.2273 243.956 16.3996 243.797 16.6051C243.641 16.8073 243.416 16.9879 243.121 17.147C242.829 17.3028 242.435 17.3807 241.938 17.3807C241.321 17.3807 240.768 17.2348 240.277 16.9432C239.79 16.6515 239.404 16.2273 239.119 15.6705C238.837 15.1136 238.696 14.4375 238.696 13.642C238.696 12.8598 238.834 12.1787 239.109 11.5987C239.384 11.0154 239.767 10.5646 240.257 10.2464C240.748 9.92495 241.315 9.7642 241.958 9.7642C242.455 9.7642 242.849 9.84706 243.141 10.0128C243.436 10.1752 243.661 10.3608 243.817 10.5696C243.976 10.7751 244.099 10.9441 244.185 11.0767H244.304V9.86364H245.438V17.7188C245.438 18.375 245.289 18.9086 244.99 19.3196C244.695 19.7339 244.298 20.0372 243.797 20.2294C243.3 20.425 242.747 20.5227 242.137 20.5227ZM242.097 16.3267C242.568 16.3267 242.965 16.219 243.29 16.0036C243.615 15.7881 243.862 15.4782 244.031 15.0739C244.2 14.6695 244.284 14.1856 244.284 13.6222C244.284 13.072 244.202 12.5864 244.036 12.1655C243.87 11.7446 243.625 11.4148 243.3 11.1761C242.975 10.9375 242.574 10.8182 242.097 10.8182C241.6 10.8182 241.185 10.9441 240.854 11.196C240.526 11.4479 240.279 11.786 240.113 12.2102C239.951 12.6345 239.87 13.1051 239.87 13.6222C239.87 14.1525 239.953 14.6214 240.118 15.0291C240.287 15.4335 240.536 15.7517 240.864 15.9837C241.195 16.2124 241.606 16.3267 242.097 16.3267Z" fill="#285D9A"/>
<path d="M130 20.2841H246.512V21.2386H130V20.2841Z" fill="#285D9A"/>
<path d="M253 11.5C255.209 11.5 257 9.70938 257 7.5C257 5.29063 255.209 3.5 253 3.5C250.791 3.5 249 5.29063 249 7.5C249 9.70938 250.791 11.5 253 11.5ZM253.375 9.125C253.375 9.33125 253.206 9.5 253 9.5C252.794 9.5 252.625 9.33203 252.625 9.125V7.125C252.625 6.91797 252.793 6.75 253 6.75C253.207 6.75 253.375 6.91719 253.375 7.125V9.125ZM253 5.25C253.271 5.25 253.491 5.47 253.491 5.74125C253.491 6.0125 253.271 6.2325 253 6.2325C252.729 6.2325 252.509 6.0125 252.509 5.74125C252.509 5.47031 252.728 5.25 253 5.25Z" fill="#2F913F"/>
<path d="M134.375 46.5H131.233V36.3182H134.514C135.502 36.3182 136.347 36.522 137.05 36.9297C137.752 37.334 138.291 37.9157 138.665 38.6747C139.04 39.4304 139.227 40.3352 139.227 41.3892C139.227 42.4498 139.038 43.3629 138.661 44.1286C138.283 44.8909 137.732 45.4775 137.01 45.8885C136.287 46.2962 135.409 46.5 134.375 46.5ZM132.466 45.4062H134.295C135.137 45.4062 135.835 45.2438 136.388 44.919C136.942 44.5942 137.355 44.1319 137.626 43.532C137.898 42.9321 138.034 42.2178 138.034 41.3892C138.034 40.5672 137.9 39.8596 137.631 39.2663C137.363 38.6697 136.962 38.2124 136.428 37.8942C135.895 37.5727 135.23 37.4119 134.435 37.4119H132.466V45.4062ZM145.949 43.3778V38.8636H147.122V46.5H145.949V45.2074H145.869C145.69 45.5952 145.412 45.925 145.034 46.1967C144.656 46.4652 144.179 46.5994 143.602 46.5994C143.125 46.5994 142.701 46.495 142.33 46.2862C141.958 46.0741 141.667 45.7559 141.455 45.3317C141.242 44.9041 141.136 44.3655 141.136 43.7159V38.8636H142.31V43.6364C142.31 44.1932 142.465 44.6373 142.777 44.9688C143.092 45.3002 143.493 45.4659 143.98 45.4659C144.272 45.4659 144.568 45.3913 144.87 45.2422C145.175 45.093 145.43 44.8643 145.636 44.5561C145.844 44.2479 145.949 43.8551 145.949 43.3778ZM150.444 41.9062V46.5H149.271V38.8636H150.405V40.0568H150.504C150.683 39.669 150.955 39.3575 151.319 39.1222C151.684 38.8835 152.155 38.7642 152.731 38.7642C153.248 38.7642 153.701 38.8703 154.089 39.0824C154.476 39.2912 154.778 39.6094 154.993 40.0369C155.209 40.4612 155.317 40.9981 155.317 41.6477V46.5H154.143V41.7273C154.143 41.1274 153.988 40.66 153.676 40.3253C153.364 39.9872 152.937 39.8182 152.393 39.8182C152.019 39.8182 151.684 39.8994 151.389 40.0618C151.097 40.2242 150.867 40.4612 150.698 40.7727C150.529 41.0843 150.444 41.4621 150.444 41.9062ZM160.543 49.5227C159.976 49.5227 159.489 49.4498 159.081 49.304C158.674 49.1615 158.334 48.9725 158.062 48.7372C157.794 48.5052 157.58 48.2566 157.421 47.9915L158.355 47.3352C158.462 47.4744 158.596 47.6335 158.758 47.8125C158.921 47.9948 159.143 48.1522 159.424 48.2848C159.709 48.4207 160.082 48.4886 160.543 48.4886C161.159 48.4886 161.668 48.3395 162.069 48.0412C162.47 47.7429 162.671 47.2756 162.671 46.6392V45.0881H162.571C162.485 45.2273 162.363 45.3996 162.203 45.6051C162.048 45.8073 161.822 45.9879 161.527 46.147C161.236 46.3028 160.841 46.3807 160.344 46.3807C159.728 46.3807 159.174 46.2348 158.684 45.9432C158.196 45.6515 157.81 45.2273 157.525 44.6705C157.243 44.1136 157.103 43.4375 157.103 42.642C157.103 41.8598 157.24 41.1787 157.515 40.5987C157.79 40.0154 158.173 39.5646 158.664 39.2464C159.154 38.925 159.721 38.7642 160.364 38.7642C160.861 38.7642 161.256 38.8471 161.547 39.0128C161.842 39.1752 162.068 39.3608 162.223 39.5696C162.382 39.7751 162.505 39.9441 162.591 40.0767H162.711V38.8636H163.844V46.7188C163.844 47.375 163.695 47.9086 163.397 48.3196C163.102 48.7339 162.704 49.0372 162.203 49.2294C161.706 49.425 161.153 49.5227 160.543 49.5227ZM160.503 45.3267C160.974 45.3267 161.372 45.219 161.696 45.0036C162.021 44.7881 162.268 44.4782 162.437 44.0739C162.606 43.6695 162.691 43.1856 162.691 42.6222C162.691 42.072 162.608 41.5864 162.442 41.1655C162.276 40.7446 162.031 40.4148 161.706 40.1761C161.382 39.9375 160.98 39.8182 160.503 39.8182C160.006 39.8182 159.592 39.9441 159.26 40.196C158.932 40.4479 158.685 40.786 158.52 41.2102C158.357 41.6345 158.276 42.1051 158.276 42.6222C158.276 43.1525 158.359 43.6214 158.525 44.0291C158.694 44.4335 158.942 44.7517 159.27 44.9837C159.602 45.2124 160.013 45.3267 160.503 45.3267ZM170.088 46.5V36.3182H171.321V45.4062H176.054V46.5H170.088ZM177.804 46.5V38.8636H178.978V46.5H177.804ZM178.401 37.5909C178.172 37.5909 177.975 37.513 177.809 37.3572C177.647 37.2015 177.566 37.0142 177.566 36.7955C177.566 36.5767 177.647 36.3894 177.809 36.2337C177.975 36.0779 178.172 36 178.401 36C178.63 36 178.825 36.0779 178.988 36.2337C179.153 36.3894 179.236 36.5767 179.236 36.7955C179.236 37.0142 179.153 37.2015 178.988 37.3572C178.825 37.513 178.63 37.5909 178.401 37.5909ZM184.328 46.6591C183.593 46.6591 182.958 46.4967 182.424 46.1719C181.894 45.8438 181.485 45.3864 181.196 44.7997C180.911 44.2098 180.769 43.5237 180.769 42.7415C180.769 41.9593 180.911 41.2699 181.196 40.6733C181.485 40.0734 181.886 39.6061 182.399 39.2713C182.916 38.9332 183.52 38.7642 184.209 38.7642C184.607 38.7642 184.999 38.8305 185.387 38.9631C185.775 39.0956 186.128 39.3111 186.446 39.6094C186.764 39.9044 187.018 40.2955 187.207 40.7827C187.396 41.2699 187.49 41.8698 187.49 42.5824V43.0795H181.604V42.0653H186.297C186.297 41.6345 186.211 41.25 186.039 40.9119C185.869 40.5739 185.628 40.3071 185.313 40.1115C185.001 39.916 184.633 39.8182 184.209 39.8182C183.742 39.8182 183.337 39.9342 182.996 40.1662C182.658 40.3949 182.398 40.6932 182.215 41.0611C182.033 41.429 181.942 41.8234 181.942 42.2443V42.9205C181.942 43.4972 182.041 43.986 182.24 44.3871C182.442 44.7848 182.722 45.0881 183.08 45.2969C183.438 45.5024 183.854 45.6051 184.328 45.6051C184.637 45.6051 184.915 45.562 185.164 45.4759C185.415 45.3864 185.633 45.2538 185.815 45.0781C185.997 44.8991 186.138 44.6771 186.237 44.4119L187.371 44.7301C187.252 45.1146 187.051 45.4527 186.769 45.7443C186.488 46.0327 186.14 46.258 185.725 46.4205C185.311 46.5795 184.845 46.6591 184.328 46.6591ZM190.448 41.9062V46.5H189.275V38.8636H190.409V40.0568H190.508C190.687 39.669 190.959 39.3575 191.323 39.1222C191.688 38.8835 192.159 38.7642 192.735 38.7642C193.252 38.7642 193.705 38.8703 194.093 39.0824C194.48 39.2912 194.782 39.6094 194.997 40.0369C195.213 40.4612 195.32 40.9981 195.32 41.6477V46.5H194.147V41.7273C194.147 41.1274 193.991 40.66 193.68 40.3253C193.368 39.9872 192.941 39.8182 192.397 39.8182C192.023 39.8182 191.688 39.8994 191.393 40.0618C191.101 40.2242 190.871 40.4612 190.702 40.7727C190.533 41.0843 190.448 41.4621 190.448 41.9062ZM201.561 46.5V36.3182H202.794V45.4062H207.527V46.5H201.561ZM209.277 46.5V38.8636H210.45V46.5H209.277ZM209.874 37.5909C209.645 37.5909 209.448 37.513 209.282 37.3572C209.12 37.2015 209.038 37.0142 209.038 36.7955C209.038 36.5767 209.12 36.3894 209.282 36.2337C209.448 36.0779 209.645 36 209.874 36C210.102 36 210.298 36.0779 210.46 36.2337C210.626 36.3894 210.709 36.5767 210.709 36.7955C210.709 37.0142 210.626 37.2015 210.46 37.3572C210.298 37.513 210.102 37.5909 209.874 37.5909ZM215.801 46.6591C215.065 46.6591 214.43 46.4967 213.897 46.1719C213.367 45.8438 212.957 45.3864 212.669 44.7997C212.384 44.2098 212.241 43.5237 212.241 42.7415C212.241 41.9593 212.384 41.2699 212.669 40.6733C212.957 40.0734 213.358 39.6061 213.872 39.2713C214.389 38.9332 214.992 38.7642 215.682 38.7642C216.079 38.7642 216.472 38.8305 216.86 38.9631C217.248 39.0956 217.601 39.3111 217.919 39.6094C218.237 39.9044 218.491 40.2955 218.68 40.7827C218.868 41.2699 218.963 41.8698 218.963 42.5824V43.0795H213.077V42.0653H217.77C217.77 41.6345 217.684 41.25 217.511 40.9119C217.342 40.5739 217.1 40.3071 216.785 40.1115C216.474 39.916 216.106 39.8182 215.682 39.8182C215.214 39.8182 214.81 39.9342 214.469 40.1662C214.131 40.3949 213.87 40.6932 213.688 41.0611C213.506 41.429 213.415 41.8234 213.415 42.2443V42.9205C213.415 43.4972 213.514 43.986 213.713 44.3871C213.915 44.7848 214.195 45.0881 214.553 45.2969C214.911 45.5024 215.327 45.6051 215.801 45.6051C216.109 45.6051 216.388 45.562 216.636 45.4759C216.888 45.3864 217.105 45.2538 217.287 45.0781C217.47 44.8991 217.611 44.6771 217.71 44.4119L218.844 44.7301C218.724 45.1146 218.524 45.4527 218.242 45.7443C217.96 46.0327 217.612 46.258 217.198 46.4205C216.784 46.5795 216.318 46.6591 215.801 46.6591ZM221.921 41.9062V46.5H220.748V38.8636H221.881V40.0568H221.981C222.16 39.669 222.431 39.3575 222.796 39.1222C223.161 38.8835 223.631 38.7642 224.208 38.7642C224.725 38.7642 225.177 38.8703 225.565 39.0824C225.953 39.2912 226.255 39.6094 226.47 40.0369C226.685 40.4612 226.793 40.9981 226.793 41.6477V46.5H225.62V41.7273C225.62 41.1274 225.464 40.66 225.153 40.3253C224.841 39.9872 224.413 39.8182 223.87 39.8182C223.495 39.8182 223.161 39.8994 222.866 40.0618C222.574 40.2242 222.344 40.4612 222.175 40.7727C222.006 41.0843 221.921 41.4621 221.921 41.9062ZM233.034 46.5V36.3182H234.267V45.4062H239V46.5H233.034ZM240.548 49.3636C240.349 49.3636 240.172 49.3471 240.016 49.3139C239.861 49.2841 239.753 49.2543 239.693 49.2244L239.991 48.1903C240.277 48.2633 240.528 48.2898 240.747 48.2699C240.966 48.25 241.16 48.1522 241.329 47.9766C241.501 47.8042 241.659 47.5241 241.801 47.1364L242.02 46.5398L239.196 38.8636H240.469L242.577 44.9489H242.656L244.764 38.8636H246.037L242.795 47.6136C242.65 48.008 242.469 48.3345 242.254 48.593C242.038 48.8549 241.788 49.0488 241.503 49.1747C241.221 49.3007 240.903 49.3636 240.548 49.3636Z" fill="#285D9A"/>
<path d="M130 49.2841H246.514V50.2386H130V49.2841Z" fill="#285D9A"/>
<path d="M253 40.5C255.209 40.5 257 38.7094 257 36.5C257 34.2906 255.209 32.5 253 32.5C250.791 32.5 249 34.2906 249 36.5C249 38.7094 250.791 40.5 253 40.5ZM253.375 38.125C253.375 38.3312 253.206 38.5 253 38.5C252.794 38.5 252.625 38.332 252.625 38.125V36.125C252.625 35.918 252.793 35.75 253 35.75C253.207 35.75 253.375 35.9172 253.375 36.125V38.125ZM253 34.25C253.271 34.25 253.491 34.47 253.491 34.7412C253.491 35.0125 253.271 35.2325 253 35.2325C252.729 35.2325 252.509 35.0125 252.509 34.7412C252.509 34.4703 252.728 34.25 253 34.25Z" fill="#2F913F"/>
<defs>
<clipPath id="clip0_1278_8711">
<rect width="24" height="24" fill="white"/>
</clipPath>
</defs>
</svg>
