<svg width="333" height="111" viewBox="0 0 333 111" fill="none" xmlns="http://www.w3.org/2000/svg">
<g clip-path="url(#clip0_1278_8694)">
<path d="M9 13C11.21 13 13 11.21 13 9C13 6.79 11.21 5 9 5C6.79 5 5 6.79 5 9C5 11.21 6.79 13 9 13ZM9 7C10.1 7 11 7.9 11 9C11 10.1 10.1 11 9 11C7.9 11 7 10.1 7 9C7 7.9 7.9 7 9 7ZM9 15C6.33 15 1 16.34 1 19V21H17V19C17 16.34 11.67 15 9 15ZM3 19C3.22 18.28 6.31 17 9 17C11.7 17 14.8 18.29 15 19H3ZM15.08 7.05C15.92 8.23 15.92 9.76 15.08 10.94L16.76 12.63C18.78 10.61 18.78 7.56 16.76 5.36L15.08 7.05ZM20.07 2L18.44 3.63C21.21 6.65 21.21 11.19 18.44 14.37L20.07 16C23.97 12.11 23.98 6.05 20.07 2Z" fill="#285D9A"/>
</g>
<path d="M34.4972 9.09304V7.31818H42.8594V9.09304H39.7422V17.5H37.6143V9.09304H34.4972ZM43.4038 17.5V9.86364H45.457V11.196H45.5366C45.6758 10.7221 45.9094 10.3641 46.2376 10.1222C46.5657 9.87689 46.9435 9.75426 47.3711 9.75426C47.4772 9.75426 47.5915 9.76089 47.7141 9.77415C47.8368 9.78741 47.9445 9.80563 48.0373 9.82883V11.7081C47.9379 11.6783 47.8003 11.6518 47.6246 11.6286C47.449 11.6054 47.2882 11.5938 47.1424 11.5938C46.8308 11.5938 46.5524 11.6617 46.3072 11.7976C46.0652 11.9302 45.873 12.1158 45.7305 12.3544C45.5913 12.593 45.5217 12.8681 45.5217 13.1797V17.5H43.4038ZM51.0911 17.6442C50.6039 17.6442 50.1697 17.5597 49.7885 17.3906C49.4074 17.2183 49.1058 16.9647 48.8837 16.63C48.665 16.2919 48.5556 15.871 48.5556 15.3672C48.5556 14.9429 48.6335 14.5866 48.7892 14.2983C48.945 14.0099 49.1571 13.7779 49.4256 13.6023C49.6941 13.4266 49.999 13.294 50.3404 13.2045C50.6851 13.1151 51.0463 13.0521 51.4242 13.0156C51.8683 12.9692 52.2263 12.9261 52.498 12.8864C52.7698 12.8433 52.967 12.7803 53.0897 12.6974C53.2123 12.6146 53.2736 12.492 53.2736 12.3295V12.2997C53.2736 11.9848 53.1742 11.7412 52.9753 11.5689C52.7798 11.3965 52.5014 11.3104 52.1401 11.3104C51.7589 11.3104 51.4557 11.3949 51.2303 11.5639C51.0049 11.7296 50.8558 11.9384 50.7828 12.1903L48.824 12.0312C48.9235 11.5672 49.119 11.1662 49.4107 10.8281C49.7024 10.4867 50.0785 10.2249 50.5392 10.0426C51.0033 9.85701 51.5402 9.7642 52.15 9.7642C52.5743 9.7642 52.9803 9.81392 53.3681 9.91335C53.7592 10.0128 54.1055 10.1669 54.4071 10.3757C54.7121 10.5845 54.9524 10.853 55.128 11.1811C55.3037 11.5059 55.3915 11.8954 55.3915 12.3494V17.5H53.383V16.4411H53.3233C53.2007 16.6797 53.0366 16.8902 52.8311 17.0724C52.6257 17.2514 52.3787 17.3923 52.0904 17.495C51.802 17.5945 51.4689 17.6442 51.0911 17.6442ZM51.6976 16.1825C52.0092 16.1825 52.2843 16.1212 52.5229 15.9986C52.7615 15.8726 52.9488 15.7036 53.0847 15.4915C53.2206 15.2794 53.2885 15.0391 53.2885 14.7706V13.9602C53.2222 14.0033 53.1311 14.0431 53.0151 14.0795C52.9024 14.1127 52.7748 14.1442 52.6323 14.174C52.4898 14.2005 52.3472 14.2254 52.2047 14.2486C52.0622 14.2685 51.9329 14.2867 51.8169 14.3033C51.5684 14.3397 51.3513 14.3977 51.1657 14.4773C50.9801 14.5568 50.8359 14.6645 50.7331 14.8004C50.6304 14.933 50.579 15.0987 50.579 15.2976C50.579 15.5859 50.6834 15.8063 50.8922 15.9588C51.1043 16.108 51.3728 16.1825 51.6976 16.1825ZM57.0346 17.5V9.86364H59.1525V17.5H57.0346ZM58.0985 8.87926C57.7837 8.87926 57.5136 8.77486 57.2882 8.56605C57.0661 8.35393 56.9551 8.10038 56.9551 7.8054C56.9551 7.51373 57.0661 7.26349 57.2882 7.05469C57.5136 6.84257 57.7837 6.73651 58.0985 6.73651C58.4134 6.73651 58.6819 6.84257 58.9039 7.05469C59.1293 7.26349 59.242 7.51373 59.242 7.8054C59.242 8.10038 59.1293 8.35393 58.9039 8.56605C58.6819 8.77486 58.4134 8.87926 58.0985 8.87926ZM62.967 13.0852V17.5H60.8491V9.86364H62.8675V11.2109H62.957C63.1261 10.7668 63.4094 10.4155 63.8072 10.157C64.2049 9.89512 64.6871 9.7642 65.2539 9.7642C65.7842 9.7642 66.2466 9.88021 66.641 10.1122C67.0354 10.3442 67.342 10.6757 67.5607 11.1065C67.7795 11.5341 67.8888 12.0445 67.8888 12.6378V17.5H65.771V13.0156C65.7743 12.5483 65.6549 12.1837 65.413 11.9219C65.171 11.6567 64.8379 11.5241 64.4137 11.5241C64.1287 11.5241 63.8768 11.5855 63.658 11.7081C63.4426 11.8307 63.2736 12.0097 63.1509 12.245C63.0316 12.477 62.9703 12.7571 62.967 13.0852ZM73.0382 17.6491C72.2527 17.6491 71.5765 17.4901 71.0098 17.1719C70.4463 16.8504 70.0121 16.3963 69.7072 15.8097C69.4023 15.2197 69.2498 14.522 69.2498 13.7166C69.2498 12.9311 69.4023 12.2417 69.7072 11.6484C70.0121 11.0552 70.4413 10.5928 70.9949 10.2614C71.5517 9.92992 72.2046 9.7642 72.9537 9.7642C73.4574 9.7642 73.9264 9.84541 74.3606 10.0078C74.7981 10.1669 75.1793 10.4072 75.5041 10.7287C75.8322 11.0502 76.0874 11.4545 76.2697 11.9418C76.452 12.4257 76.5431 12.9924 76.5431 13.642V14.2237H70.095V12.9112H74.5495C74.5495 12.6063 74.4833 12.3362 74.3507 12.1009C74.2181 11.8655 74.0342 11.6816 73.7988 11.549C73.5668 11.4131 73.2967 11.3452 72.9885 11.3452C72.667 11.3452 72.3819 11.4197 72.1333 11.5689C71.8881 11.7147 71.6958 11.9119 71.5566 12.1605C71.4174 12.4058 71.3462 12.6792 71.3429 12.9808V14.2287C71.3429 14.6065 71.4125 14.933 71.5517 15.2081C71.6942 15.4832 71.8947 15.6953 72.1532 15.8445C72.4118 15.9936 72.7183 16.0682 73.073 16.0682C73.3083 16.0682 73.5237 16.035 73.7193 15.9688C73.9148 15.9025 74.0822 15.803 74.2214 15.6705C74.3606 15.5379 74.4667 15.3755 74.5396 15.1832L76.4984 15.3125C76.399 15.7831 76.1951 16.1941 75.8869 16.5455C75.582 16.8935 75.1876 17.1652 74.7037 17.3608C74.2231 17.553 73.6679 17.6491 73.0382 17.6491ZM77.9252 17.5V9.86364H79.9785V11.196H80.0581C80.1973 10.7221 80.4309 10.3641 80.7591 10.1222C81.0872 9.87689 81.465 9.75426 81.8926 9.75426C81.9986 9.75426 82.113 9.76089 82.2356 9.77415C82.3583 9.78741 82.466 9.80563 82.5588 9.82883V11.7081C82.4593 11.6783 82.3218 11.6518 82.1461 11.6286C81.9705 11.6054 81.8097 11.5938 81.6639 11.5938C81.3523 11.5938 81.0739 11.6617 80.8287 11.7976C80.5867 11.9302 80.3945 12.1158 80.252 12.3544C80.1127 12.593 80.0431 12.8681 80.0431 13.1797V17.5H77.9252Z" fill="black"/>
<path d="M134.375 17.5H131.233V7.31818H134.514C135.502 7.31818 136.347 7.52202 137.05 7.92969C137.752 8.33404 138.291 8.91572 138.665 9.67472C139.04 10.4304 139.227 11.3352 139.227 12.3892C139.227 13.4498 139.038 14.3629 138.661 15.1286C138.283 15.8909 137.732 16.4775 137.01 16.8885C136.287 17.2962 135.409 17.5 134.375 17.5ZM132.466 16.4062H134.295C135.137 16.4062 135.835 16.2438 136.388 15.919C136.942 15.5942 137.355 15.1319 137.626 14.532C137.898 13.9321 138.034 13.2178 138.034 12.3892C138.034 11.5672 137.9 10.8596 137.631 10.2663C137.363 9.66974 136.962 9.21236 136.428 8.89418C135.895 8.57268 135.23 8.41193 134.435 8.41193H132.466V16.4062ZM141.136 17.5V9.86364H142.31V17.5H141.136ZM141.733 8.59091C141.504 8.59091 141.307 8.51302 141.141 8.35724C140.979 8.20147 140.898 8.0142 140.898 7.79545C140.898 7.5767 140.979 7.38944 141.141 7.23366C141.307 7.07789 141.504 7 141.733 7C141.962 7 142.157 7.07789 142.32 7.23366C142.485 7.38944 142.568 7.5767 142.568 7.79545C142.568 8.0142 142.485 8.20147 142.32 8.35724C142.157 8.51302 141.962 8.59091 141.733 8.59091ZM145.632 12.9062V17.5H144.459V9.86364H145.592V11.0568H145.692C145.871 10.669 146.142 10.3575 146.507 10.1222C146.872 9.88352 147.342 9.7642 147.919 9.7642C148.436 9.7642 148.888 9.87027 149.276 10.0824C149.664 10.2912 149.965 10.6094 150.181 11.0369C150.396 11.4612 150.504 11.9981 150.504 12.6477V17.5H149.331V12.7273C149.331 12.1274 149.175 11.66 148.863 11.3253C148.552 10.9872 148.124 10.8182 147.581 10.8182C147.206 10.8182 146.872 10.8994 146.577 11.0618C146.285 11.2242 146.055 11.4612 145.885 11.7727C145.716 12.0843 145.632 12.4621 145.632 12.9062ZM153.821 12.9062V17.5H152.648V7.31818H153.821V11.0568H153.921C154.1 10.6624 154.368 10.3492 154.726 10.1172C155.087 9.88187 155.568 9.7642 156.168 9.7642C156.688 9.7642 157.144 9.86861 157.535 10.0774C157.926 10.2829 158.23 10.5994 158.445 11.027C158.664 11.4512 158.773 11.9915 158.773 12.6477V17.5H157.6V12.7273C157.6 12.1207 157.442 11.6518 157.127 11.3203C156.816 10.9856 156.383 10.8182 155.83 10.8182C155.445 10.8182 155.101 10.8994 154.796 11.0618C154.494 11.2242 154.256 11.4612 154.08 11.7727C153.908 12.0843 153.821 12.4621 153.821 12.9062ZM165.434 7.31818L168.456 15.8892H168.576L171.599 7.31818H172.891L169.153 17.5H167.88L164.141 7.31818H165.434ZM179.131 14.3778V9.86364H180.304V17.5H179.131V16.2074H179.051C178.872 16.5952 178.594 16.925 178.216 17.1967C177.838 17.4652 177.361 17.5994 176.784 17.5994C176.307 17.5994 175.882 17.495 175.511 17.2862C175.14 17.0741 174.848 16.7559 174.636 16.3317C174.424 15.9041 174.318 15.3655 174.318 14.7159V9.86364H175.491V14.6364C175.491 15.1932 175.647 15.6373 175.959 15.9688C176.273 16.3002 176.675 16.4659 177.162 16.4659C177.453 16.4659 177.75 16.3913 178.052 16.2422C178.357 16.093 178.612 15.8643 178.817 15.5561C179.026 15.2479 179.131 14.8551 179.131 14.3778ZM190.248 14.3182H191.6L192.734 15.8097L193.032 16.2074L194.723 18.4545H193.37L192.257 16.9631L191.978 16.5852L190.248 14.3182ZM195.14 12.4091C195.14 13.483 194.946 14.411 194.559 15.1932C194.171 15.9754 193.639 16.5786 192.963 17.0028C192.287 17.4271 191.514 17.6392 190.646 17.6392C189.778 17.6392 189.005 17.4271 188.329 17.0028C187.653 16.5786 187.121 15.9754 186.733 15.1932C186.346 14.411 186.152 13.483 186.152 12.4091C186.152 11.3352 186.346 10.4072 186.733 9.625C187.121 8.8428 187.653 8.23958 188.329 7.81534C189.005 7.3911 189.778 7.17898 190.646 7.17898C191.514 7.17898 192.287 7.3911 192.963 7.81534C193.639 8.23958 194.171 8.8428 194.559 9.625C194.946 10.4072 195.14 11.3352 195.14 12.4091ZM193.947 12.4091C193.947 11.5275 193.8 10.7834 193.505 10.1768C193.213 9.57031 192.817 9.11127 192.316 8.79972C191.819 8.48816 191.262 8.33239 190.646 8.33239C190.029 8.33239 189.471 8.48816 188.971 8.79972C188.473 9.11127 188.077 9.57031 187.782 10.1768C187.491 10.7834 187.345 11.5275 187.345 12.4091C187.345 13.2907 187.491 14.0348 187.782 14.6413C188.077 15.2479 188.473 15.7069 188.971 16.0185C189.471 16.33 190.029 16.4858 190.646 16.4858C191.262 16.4858 191.819 16.33 192.316 16.0185C192.817 15.7069 193.213 15.2479 193.505 14.6413C193.8 14.0348 193.947 13.2907 193.947 12.4091ZM201.867 14.3778V9.86364H203.04V17.5H201.867V16.2074H201.787C201.608 16.5952 201.33 16.925 200.952 17.1967C200.574 17.4652 200.097 17.5994 199.52 17.5994C199.043 17.5994 198.619 17.495 198.248 17.2862C197.876 17.0741 197.585 16.7559 197.373 16.3317C197.16 15.9041 197.054 15.3655 197.054 14.7159V9.86364H198.228V14.6364C198.228 15.1932 198.383 15.6373 198.695 15.9688C199.01 16.3002 199.411 16.4659 199.898 16.4659C200.19 16.4659 200.486 16.3913 200.788 16.2422C201.093 16.093 201.348 15.8643 201.554 15.5561C201.762 15.2479 201.867 14.8551 201.867 14.3778ZM208.291 17.6591C207.602 17.6591 206.997 17.495 206.477 17.1669C205.96 16.8388 205.555 16.3797 205.264 15.7898C204.975 15.1998 204.831 14.5104 204.831 13.7216C204.831 12.9261 204.975 12.2318 205.264 11.6385C205.555 11.0452 205.96 10.5845 206.477 10.2564C206.997 9.92827 207.602 9.7642 208.291 9.7642C208.981 9.7642 209.584 9.92827 210.101 10.2564C210.621 10.5845 211.026 11.0452 211.314 11.6385C211.606 12.2318 211.752 12.9261 211.752 13.7216C211.752 14.5104 211.606 15.1998 211.314 15.7898C211.026 16.3797 210.621 16.8388 210.101 17.1669C209.584 17.495 208.981 17.6591 208.291 17.6591ZM208.291 16.6051C208.815 16.6051 209.246 16.4709 209.584 16.2024C209.922 15.9339 210.172 15.581 210.335 15.1435C210.497 14.706 210.578 14.232 210.578 13.7216C210.578 13.2112 210.497 12.7356 210.335 12.2947C210.172 11.8539 209.922 11.4976 209.584 11.2259C209.246 10.9541 208.815 10.8182 208.291 10.8182C207.768 10.8182 207.337 10.9541 206.999 11.2259C206.661 11.4976 206.41 11.8539 206.248 12.2947C206.086 12.7356 206.004 13.2112 206.004 13.7216C206.004 14.232 206.086 14.706 206.248 15.1435C206.41 15.581 206.661 15.9339 206.999 16.2024C207.337 16.4709 207.768 16.6051 208.291 16.6051ZM216.645 17.6591C215.929 17.6591 215.313 17.4901 214.795 17.152C214.278 16.8139 213.881 16.3482 213.602 15.755C213.324 15.1617 213.185 14.4839 213.185 13.7216C213.185 12.946 213.327 12.2616 213.612 11.6683C213.901 11.0717 214.302 10.6061 214.815 10.2713C215.332 9.93324 215.936 9.7642 216.625 9.7642C217.162 9.7642 217.646 9.86364 218.077 10.0625C218.508 10.2614 218.861 10.5398 219.136 10.8977C219.411 11.2557 219.581 11.6733 219.648 12.1506H218.474C218.385 11.8026 218.186 11.4943 217.878 11.2259C217.573 10.9541 217.162 10.8182 216.645 10.8182C216.188 10.8182 215.786 10.9375 215.442 11.1761C215.1 11.4115 214.834 11.7446 214.641 12.1754C214.452 12.603 214.358 13.1051 214.358 13.6818C214.358 14.2718 214.451 14.7855 214.636 15.223C214.825 15.6605 215.09 16.0002 215.432 16.2422C215.777 16.4841 216.181 16.6051 216.645 16.6051C216.95 16.6051 217.227 16.5521 217.475 16.446C217.724 16.34 217.934 16.1875 218.107 15.9886C218.279 15.7898 218.402 15.5511 218.474 15.2727H219.648C219.581 15.7235 219.417 16.1295 219.156 16.4908C218.897 16.8487 218.554 17.1338 218.126 17.3459C217.702 17.5547 217.208 17.6591 216.645 17.6591ZM224.903 8.41193V7.31818H232.539V8.41193H229.337V17.5H228.104V8.41193H224.903ZM233.49 17.5V9.86364H234.623V11.017H234.703C234.842 10.6392 235.094 10.3326 235.459 10.0973C235.823 9.86198 236.234 9.74432 236.692 9.74432C236.778 9.74432 236.885 9.74597 237.015 9.74929C237.144 9.7526 237.242 9.75758 237.308 9.7642V10.9574C237.268 10.9474 237.177 10.9325 237.035 10.9126C236.895 10.8894 236.748 10.8778 236.592 10.8778C236.221 10.8778 235.89 10.9557 235.598 11.1115C235.309 11.264 235.081 11.4761 234.912 11.7479C234.746 12.0163 234.663 12.3229 234.663 12.6676V17.5H233.49ZM243.511 14.3778V9.86364H244.685V17.5H243.511V16.2074H243.432C243.253 16.5952 242.974 16.925 242.597 17.1967C242.219 17.4652 241.741 17.5994 241.165 17.5994C240.688 17.5994 240.263 17.495 239.892 17.2862C239.521 17.0741 239.229 16.7559 239.017 16.3317C238.805 15.9041 238.699 15.3655 238.699 14.7159V9.86364H239.872V14.6364C239.872 15.1932 240.028 15.6373 240.339 15.9688C240.654 16.3002 241.055 16.4659 241.543 16.4659C241.834 16.4659 242.131 16.3913 242.433 16.2422C242.737 16.093 242.993 15.8643 243.198 15.5561C243.407 15.2479 243.511 14.8551 243.511 14.3778ZM248.007 12.9062V17.5H246.834V9.86364H247.967V11.0568H248.067C248.246 10.669 248.517 10.3575 248.882 10.1222C249.247 9.88352 249.717 9.7642 250.294 9.7642C250.811 9.7642 251.263 9.87027 251.651 10.0824C252.039 10.2912 252.34 10.6094 252.556 11.0369C252.771 11.4612 252.879 11.9981 252.879 12.6477V17.5H251.706V12.7273C251.706 12.1274 251.55 11.66 251.238 11.3253C250.927 10.9872 250.499 10.8182 249.956 10.8182C249.581 10.8182 249.247 10.8994 248.952 11.0618C248.66 11.2242 248.43 11.4612 248.26 11.7727C248.091 12.0843 248.007 12.4621 248.007 12.9062ZM258.105 20.5227C257.539 20.5227 257.051 20.4498 256.644 20.304C256.236 20.1615 255.896 19.9725 255.625 19.7372C255.356 19.5052 255.142 19.2566 254.983 18.9915L255.918 18.3352C256.024 18.4744 256.158 18.6335 256.321 18.8125C256.483 18.9948 256.705 19.1522 256.987 19.2848C257.272 19.4207 257.645 19.4886 258.105 19.4886C258.722 19.4886 259.231 19.3395 259.632 19.0412C260.033 18.7429 260.233 18.2756 260.233 17.6392V16.0881H260.134C260.048 16.2273 259.925 16.3996 259.766 16.6051C259.61 16.8073 259.385 16.9879 259.09 17.147C258.798 17.3028 258.404 17.3807 257.907 17.3807C257.29 17.3807 256.737 17.2348 256.246 16.9432C255.759 16.6515 255.373 16.2273 255.088 15.6705C254.806 15.1136 254.665 14.4375 254.665 13.642C254.665 12.8598 254.803 12.1787 255.078 11.5987C255.353 11.0154 255.736 10.5646 256.226 10.2464C256.717 9.92495 257.283 9.7642 257.926 9.7642C258.424 9.7642 258.818 9.84706 259.11 10.0128C259.405 10.1752 259.63 10.3608 259.786 10.5696C259.945 10.7751 260.068 10.9441 260.154 11.0767H260.273V9.86364H261.407V17.7188C261.407 18.375 261.257 18.9086 260.959 19.3196C260.664 19.7339 260.266 20.0372 259.766 20.2294C259.269 20.425 258.715 20.5227 258.105 20.5227ZM258.066 16.3267C258.536 16.3267 258.934 16.219 259.259 16.0036C259.584 15.7881 259.831 15.4782 260 15.0739C260.169 14.6695 260.253 14.1856 260.253 13.6222C260.253 13.072 260.17 12.5864 260.005 12.1655C259.839 11.7446 259.594 11.4148 259.269 11.1761C258.944 10.9375 258.543 10.8182 258.066 10.8182C257.569 10.8182 257.154 10.9441 256.823 11.196C256.495 11.4479 256.248 11.786 256.082 12.2102C255.92 12.6345 255.838 13.1051 255.838 13.6222C255.838 14.1525 255.921 14.6214 256.087 15.0291C256.256 15.4335 256.505 15.7517 256.833 15.9837C257.164 16.2124 257.575 16.3267 258.066 16.3267Z" fill="#285D9A"/>
<path d="M130 20.2841H262.48V21.2386H130V20.2841Z" fill="#285D9A"/>
<path d="M269 11.5C271.209 11.5 273 9.70938 273 7.5C273 5.29063 271.209 3.5 269 3.5C266.791 3.5 265 5.29063 265 7.5C265 9.70938 266.791 11.5 269 11.5ZM269.375 9.125C269.375 9.33125 269.206 9.5 269 9.5C268.794 9.5 268.625 9.33203 268.625 9.125V7.125C268.625 6.91797 268.793 6.75 269 6.75C269.207 6.75 269.375 6.91719 269.375 7.125V9.125ZM269 5.25C269.271 5.25 269.491 5.47 269.491 5.74125C269.491 6.0125 269.271 6.2325 269 6.2325C268.729 6.2325 268.509 6.0125 268.509 5.74125C268.509 5.47031 268.728 5.25 269 5.25Z" fill="#2F913F"/>
<path d="M131.233 46.5V36.3182H134.793C135.502 36.3182 136.087 36.4408 136.548 36.6861C137.008 36.928 137.351 37.2545 137.577 37.6655C137.802 38.0732 137.915 38.5256 137.915 39.0227C137.915 39.4602 137.837 39.8215 137.681 40.1065C137.529 40.3916 137.326 40.617 137.075 40.7827C136.826 40.9484 136.556 41.071 136.264 41.1506V41.25C136.576 41.2699 136.889 41.3793 137.204 41.5781C137.519 41.777 137.782 42.062 137.994 42.4332C138.206 42.8045 138.312 43.2585 138.312 43.7955C138.312 44.3059 138.196 44.7649 137.964 45.1726C137.732 45.5803 137.366 45.9034 136.866 46.142C136.365 46.3807 135.714 46.5 134.912 46.5H131.233ZM132.466 45.4062H134.912C135.717 45.4062 136.289 45.2505 136.627 44.9389C136.969 44.6241 137.139 44.2429 137.139 43.7955C137.139 43.4508 137.051 43.1326 136.876 42.8409C136.7 42.5459 136.45 42.3106 136.125 42.1349C135.8 41.956 135.416 41.8665 134.972 41.8665H132.466V45.4062ZM132.466 40.7926H134.753C135.124 40.7926 135.459 40.7197 135.757 40.5739C136.059 40.428 136.297 40.2225 136.473 39.9574C136.652 39.6922 136.741 39.3807 136.741 39.0227C136.741 38.5753 136.586 38.1958 136.274 37.8842C135.963 37.5694 135.469 37.4119 134.793 37.4119H132.466V40.7926ZM142.426 46.679C141.943 46.679 141.503 46.5878 141.109 46.4055C140.715 46.2199 140.401 45.9531 140.169 45.6051C139.937 45.2538 139.821 44.8295 139.821 44.3324C139.821 43.8949 139.908 43.5402 140.08 43.2685C140.252 42.9934 140.483 42.7779 140.771 42.6222C141.059 42.4664 141.377 42.3504 141.725 42.2741C142.077 42.1946 142.43 42.1316 142.784 42.0852C143.248 42.0256 143.625 41.9808 143.913 41.951C144.205 41.9179 144.417 41.8632 144.549 41.7869C144.685 41.7107 144.753 41.5781 144.753 41.3892V41.3494C144.753 40.8589 144.619 40.4777 144.35 40.206C144.085 39.9342 143.683 39.7983 143.142 39.7983C142.582 39.7983 142.143 39.9209 141.825 40.1662C141.507 40.4115 141.283 40.6733 141.154 40.9517L140.04 40.554C140.239 40.09 140.504 39.7287 140.836 39.4702C141.17 39.2083 141.535 39.026 141.929 38.9233C142.327 38.8172 142.718 38.7642 143.103 38.7642C143.348 38.7642 143.63 38.794 143.948 38.8537C144.269 38.91 144.579 39.0277 144.877 39.2067C145.179 39.3857 145.429 39.6558 145.628 40.017C145.827 40.3783 145.926 40.8622 145.926 41.4688V46.5H144.753V45.4659H144.694C144.614 45.6316 144.481 45.8089 144.296 45.9979C144.11 46.1868 143.863 46.3475 143.555 46.4801C143.247 46.6127 142.871 46.679 142.426 46.679ZM142.605 45.625C143.069 45.625 143.461 45.5339 143.779 45.3516C144.1 45.1693 144.342 44.9339 144.505 44.6456C144.67 44.3572 144.753 44.054 144.753 43.7358V42.6619C144.703 42.7216 144.594 42.7763 144.425 42.826C144.259 42.8724 144.067 42.9138 143.848 42.9503C143.633 42.9834 143.422 43.0133 143.217 43.0398C143.015 43.063 142.851 43.0829 142.725 43.0994C142.42 43.1392 142.135 43.2038 141.87 43.2933C141.608 43.3795 141.396 43.5104 141.233 43.6861C141.074 43.8584 140.995 44.0937 140.995 44.392C140.995 44.7997 141.145 45.108 141.447 45.3168C141.752 45.5223 142.138 45.625 142.605 45.625ZM160.358 39.5H159.125C159.052 39.1454 158.924 38.8338 158.742 38.5653C158.563 38.2969 158.344 38.0715 158.086 37.8892C157.831 37.7036 157.547 37.5644 157.236 37.4716C156.924 37.3788 156.599 37.3324 156.261 37.3324C155.645 37.3324 155.086 37.4882 154.586 37.7997C154.089 38.1113 153.693 38.5703 153.398 39.1768C153.106 39.7834 152.96 40.5275 152.96 41.4091C152.96 42.2907 153.106 43.0348 153.398 43.6413C153.693 44.2479 154.089 44.7069 154.586 45.0185C155.086 45.33 155.645 45.4858 156.261 45.4858C156.599 45.4858 156.924 45.4394 157.236 45.3466C157.547 45.2538 157.831 45.1162 158.086 44.9339C158.344 44.7483 158.563 44.5213 158.742 44.2528C158.924 43.9811 159.052 43.6695 159.125 43.3182H160.358C160.265 43.8385 160.096 44.3042 159.851 44.7152C159.605 45.1262 159.3 45.4759 158.936 45.7642C158.571 46.0492 158.162 46.2663 157.708 46.4155C157.257 46.5646 156.775 46.6392 156.261 46.6392C155.393 46.6392 154.621 46.4271 153.944 46.0028C153.268 45.5786 152.736 44.9754 152.349 44.1932C151.961 43.411 151.767 42.483 151.767 41.4091C151.767 40.3352 151.961 39.4072 152.349 38.625C152.736 37.8428 153.268 37.2396 153.944 36.8153C154.621 36.3911 155.393 36.179 156.261 36.179C156.775 36.179 157.257 36.2536 157.708 36.4027C158.162 36.5518 158.571 36.7706 158.936 37.0589C159.3 37.344 159.605 37.692 159.851 38.103C160.096 38.5107 160.265 38.9763 160.358 39.5ZM163.364 41.9062V46.5H162.191V36.3182H163.364V40.0568H163.464C163.643 39.6624 163.911 39.3492 164.269 39.1172C164.63 38.8819 165.111 38.7642 165.711 38.7642C166.231 38.7642 166.687 38.8686 167.078 39.0774C167.469 39.2829 167.772 39.5994 167.988 40.027C168.207 40.4512 168.316 40.9915 168.316 41.6477V46.5H167.143V41.7273C167.143 41.1207 166.985 40.6518 166.67 40.3203C166.359 39.9856 165.926 39.8182 165.373 39.8182C164.988 39.8182 164.644 39.8994 164.339 40.0618C164.037 40.2242 163.799 40.4612 163.623 40.7727C163.451 41.0843 163.364 41.4621 163.364 41.9062ZM175.275 43.3778V38.8636H176.448V46.5H175.275V45.2074H175.195C175.017 45.5952 174.738 45.925 174.36 46.1967C173.982 46.4652 173.505 46.5994 172.928 46.5994C172.451 46.5994 172.027 46.495 171.656 46.2862C171.285 46.0741 170.993 45.7559 170.781 45.3317C170.569 44.9041 170.463 44.3655 170.463 43.7159V38.8636H171.636V43.6364C171.636 44.1932 171.792 44.6373 172.103 44.9688C172.418 45.3002 172.819 45.4659 173.306 45.4659C173.598 45.4659 173.895 45.3913 174.196 45.2422C174.501 45.093 174.756 44.8643 174.962 44.5561C175.171 44.2479 175.275 43.8551 175.275 43.3778ZM182.694 46.5V36.3182H183.927V40.8523H189.356V36.3182H190.589V46.5H189.356V41.946H183.927V46.5H182.694ZM196.1 46.6591C195.364 46.6591 194.729 46.4967 194.196 46.1719C193.665 45.8438 193.256 45.3864 192.968 44.7997C192.683 44.2098 192.54 43.5237 192.54 42.7415C192.54 41.9593 192.683 41.2699 192.968 40.6733C193.256 40.0734 193.657 39.6061 194.171 39.2713C194.688 38.9332 195.291 38.7642 195.98 38.7642C196.378 38.7642 196.771 38.8305 197.159 38.9631C197.547 39.0956 197.9 39.3111 198.218 39.6094C198.536 39.9044 198.789 40.2955 198.978 40.7827C199.167 41.2699 199.262 41.8698 199.262 42.5824V43.0795H193.375V42.0653H198.069C198.069 41.6345 197.982 41.25 197.81 40.9119C197.641 40.5739 197.399 40.3071 197.084 40.1115C196.773 39.916 196.405 39.8182 195.98 39.8182C195.513 39.8182 195.109 39.9342 194.767 40.1662C194.429 40.3949 194.169 40.6932 193.987 41.0611C193.805 41.429 193.713 41.8234 193.713 42.2443V42.9205C193.713 43.4972 193.813 43.986 194.012 44.3871C194.214 44.7848 194.494 45.0881 194.852 45.2969C195.21 45.5024 195.626 45.6051 196.1 45.6051C196.408 45.6051 196.686 45.562 196.935 45.4759C197.187 45.3864 197.404 45.2538 197.586 45.0781C197.769 44.8991 197.909 44.6771 198.009 44.4119L199.142 44.7301C199.023 45.1146 198.823 45.4527 198.541 45.7443C198.259 46.0327 197.911 46.258 197.497 46.4205C197.083 46.5795 196.617 46.6591 196.1 46.6591ZM204.149 46.6591C203.459 46.6591 202.855 46.495 202.334 46.1669C201.817 45.8388 201.413 45.3797 201.121 44.7898C200.833 44.1998 200.689 43.5104 200.689 42.7216C200.689 41.9261 200.833 41.2318 201.121 40.6385C201.413 40.0452 201.817 39.5845 202.334 39.2564C202.855 38.9283 203.459 38.7642 204.149 38.7642C204.838 38.7642 205.441 38.9283 205.958 39.2564C206.479 39.5845 206.883 40.0452 207.172 40.6385C207.463 41.2318 207.609 41.9261 207.609 42.7216C207.609 43.5104 207.463 44.1998 207.172 44.7898C206.883 45.3797 206.479 45.8388 205.958 46.1669C205.441 46.495 204.838 46.6591 204.149 46.6591ZM204.149 45.6051C204.672 45.6051 205.103 45.4709 205.441 45.2024C205.779 44.9339 206.03 44.581 206.192 44.1435C206.355 43.706 206.436 43.232 206.436 42.7216C206.436 42.2112 206.355 41.7356 206.192 41.2947C206.03 40.8539 205.779 40.4976 205.441 40.2259C205.103 39.9541 204.672 39.8182 204.149 39.8182C203.625 39.8182 203.194 39.9541 202.856 40.2259C202.518 40.4976 202.268 40.8539 202.105 41.2947C201.943 41.7356 201.862 42.2112 201.862 42.7216C201.862 43.232 201.943 43.706 202.105 44.1435C202.268 44.581 202.518 44.9339 202.856 45.2024C203.194 45.4709 203.625 45.6051 204.149 45.6051Z" fill="#285D9A"/>
<path d="M130 49.2841H208.325V50.2386H130V49.2841Z" fill="#285D9A"/>
<path d="M215 40.5C217.209 40.5 219 38.7094 219 36.5C219 34.2906 217.209 32.5 215 32.5C212.791 32.5 211 34.2906 211 36.5C211 38.7094 212.791 40.5 215 40.5ZM215.375 38.125C215.375 38.3312 215.206 38.5 215 38.5C214.794 38.5 214.625 38.332 214.625 38.125V36.125C214.625 35.918 214.793 35.75 215 35.75C215.207 35.75 215.375 35.9172 215.375 36.125V38.125ZM215 34.25C215.271 34.25 215.491 34.47 215.491 34.7412C215.491 35.0125 215.271 35.2325 215 35.2325C214.729 35.2325 214.509 35.0125 214.509 34.7412C214.509 34.4703 214.728 34.25 215 34.25Z" fill="#2F913F"/>
<path d="M131.233 75.5V65.3182H132.466V69.8523H137.895V65.3182H139.128V75.5H137.895V70.946H132.466V75.5H131.233ZM146.25 72.3778V67.8636H147.423V75.5H146.25V74.2074H146.17C145.991 74.5952 145.713 74.925 145.335 75.1967C144.957 75.4652 144.48 75.5994 143.903 75.5994C143.426 75.5994 143.002 75.495 142.63 75.2862C142.259 75.0741 141.967 74.7559 141.755 74.3317C141.543 73.9041 141.437 73.3655 141.437 72.7159V67.8636H142.61V72.6364C142.61 73.1932 142.766 73.6373 143.078 73.9688C143.393 74.3002 143.794 74.4659 144.281 74.4659C144.573 74.4659 144.869 74.3913 145.171 74.2422C145.476 74.093 145.731 73.8643 145.936 73.5561C146.145 73.2479 146.25 72.8551 146.25 72.3778ZM161.862 68.5H160.629C160.556 68.1454 160.428 67.8338 160.246 67.5653C160.067 67.2969 159.848 67.0715 159.59 66.8892C159.334 66.7036 159.051 66.5644 158.74 66.4716C158.428 66.3788 158.103 66.3324 157.765 66.3324C157.149 66.3324 156.59 66.4882 156.09 66.7997C155.593 67.1113 155.196 67.5703 154.901 68.1768C154.61 68.7834 154.464 69.5275 154.464 70.4091C154.464 71.2907 154.61 72.0348 154.901 72.6413C155.196 73.2479 155.593 73.7069 156.09 74.0185C156.59 74.33 157.149 74.4858 157.765 74.4858C158.103 74.4858 158.428 74.4394 158.74 74.3466C159.051 74.2538 159.334 74.1162 159.59 73.9339C159.848 73.7483 160.067 73.5213 160.246 73.2528C160.428 72.9811 160.556 72.6695 160.629 72.3182H161.862C161.769 72.8385 161.6 73.3042 161.355 73.7152C161.109 74.1262 160.804 74.4759 160.44 74.7642C160.075 75.0492 159.666 75.2663 159.212 75.4155C158.761 75.5646 158.279 75.6392 157.765 75.6392C156.897 75.6392 156.124 75.4271 155.448 75.0028C154.772 74.5786 154.24 73.9754 153.852 73.1932C153.465 72.411 153.271 71.483 153.271 70.4091C153.271 69.3352 153.465 68.4072 153.852 67.625C154.24 66.8428 154.772 66.2396 155.448 65.8153C156.124 65.3911 156.897 65.179 157.765 65.179C158.279 65.179 158.761 65.2536 159.212 65.4027C159.666 65.5518 160.075 65.7706 160.44 66.0589C160.804 66.344 161.109 66.692 161.355 67.103C161.6 67.5107 161.769 67.9763 161.862 68.5ZM164.868 70.9062V75.5H163.695V65.3182H164.868V69.0568H164.968C165.147 68.6624 165.415 68.3492 165.773 68.1172C166.134 67.8819 166.615 67.7642 167.215 67.7642C167.735 67.7642 168.191 67.8686 168.582 68.0774C168.973 68.2829 169.276 68.5994 169.492 69.027C169.711 69.4512 169.82 69.9915 169.82 70.6477V75.5H168.647V70.7273C168.647 70.1207 168.489 69.6518 168.174 69.3203C167.863 68.9856 167.43 68.8182 166.877 68.8182C166.492 68.8182 166.148 68.8994 165.843 69.0618C165.541 69.2242 165.302 69.4612 165.127 69.7727C164.954 70.0843 164.868 70.4621 164.868 70.9062ZM175.168 75.6591C174.432 75.6591 173.798 75.4967 173.264 75.1719C172.734 74.8438 172.324 74.3864 172.036 73.7997C171.751 73.2098 171.608 72.5237 171.608 71.7415C171.608 70.9593 171.751 70.2699 172.036 69.6733C172.324 69.0734 172.725 68.6061 173.239 68.2713C173.756 67.9332 174.359 67.7642 175.049 67.7642C175.447 67.7642 175.839 67.8305 176.227 67.9631C176.615 68.0956 176.968 68.3111 177.286 68.6094C177.604 68.9044 177.858 69.2955 178.047 69.7827C178.236 70.2699 178.33 70.8698 178.33 71.5824V72.0795H172.444V71.0653H177.137C177.137 70.6345 177.051 70.25 176.878 69.9119C176.709 69.5739 176.467 69.3071 176.153 69.1115C175.841 68.916 175.473 68.8182 175.049 68.8182C174.581 68.8182 174.177 68.9342 173.836 69.1662C173.498 69.3949 173.238 69.6932 173.055 70.0611C172.873 70.429 172.782 70.8234 172.782 71.2443V71.9205C172.782 72.4972 172.881 72.986 173.08 73.3871C173.282 73.7848 173.562 74.0881 173.92 74.2969C174.278 74.5024 174.694 74.6051 175.168 74.6051C175.476 74.6051 175.755 74.562 176.003 74.4759C176.255 74.3864 176.472 74.2538 176.655 74.0781C176.837 73.8991 176.978 73.6771 177.077 73.4119L178.211 73.7301C178.091 74.1146 177.891 74.4527 177.609 74.7443C177.327 75.0327 176.979 75.258 176.565 75.4205C176.151 75.5795 175.685 75.6591 175.168 75.6591ZM183.217 75.6591C182.528 75.6591 181.923 75.495 181.403 75.1669C180.885 74.8388 180.481 74.3797 180.189 73.7898C179.901 73.1998 179.757 72.5104 179.757 71.7216C179.757 70.9261 179.901 70.2318 180.189 69.6385C180.481 69.0452 180.885 68.5845 181.403 68.2564C181.923 67.9283 182.528 67.7642 183.217 67.7642C183.907 67.7642 184.51 67.9283 185.027 68.2564C185.547 68.5845 185.952 69.0452 186.24 69.6385C186.532 70.2318 186.677 70.9261 186.677 71.7216C186.677 72.5104 186.532 73.1998 186.24 73.7898C185.952 74.3797 185.547 74.8388 185.027 75.1669C184.51 75.495 183.907 75.6591 183.217 75.6591ZM183.217 74.6051C183.741 74.6051 184.172 74.4709 184.51 74.2024C184.848 73.9339 185.098 73.581 185.26 73.1435C185.423 72.706 185.504 72.232 185.504 71.7216C185.504 71.2112 185.423 70.7356 185.26 70.2947C185.098 69.8539 184.848 69.4976 184.51 69.2259C184.172 68.9541 183.741 68.8182 183.217 68.8182C182.693 68.8182 182.263 68.9541 181.925 69.2259C181.586 69.4976 181.336 69.8539 181.174 70.2947C181.011 70.7356 180.93 71.2112 180.93 71.7216C180.93 72.232 181.011 72.706 181.174 73.1435C181.336 73.581 181.586 73.9339 181.925 74.2024C182.263 74.4709 182.693 74.6051 183.217 74.6051ZM192.565 75.5V65.3182H196.125C196.834 65.3182 197.419 65.4408 197.88 65.6861C198.34 65.928 198.683 66.2545 198.909 66.6655C199.134 67.0732 199.247 67.5256 199.247 68.0227C199.247 68.4602 199.169 68.8215 199.013 69.1065C198.861 69.3916 198.658 69.617 198.407 69.7827C198.158 69.9484 197.888 70.071 197.596 70.1506V70.25C197.908 70.2699 198.221 70.3793 198.536 70.5781C198.851 70.777 199.114 71.062 199.326 71.4332C199.538 71.8045 199.645 72.2585 199.645 72.7955C199.645 73.3059 199.529 73.7649 199.297 74.1726C199.065 74.5803 198.698 74.9034 198.198 75.142C197.697 75.3807 197.046 75.5 196.244 75.5H192.565ZM193.798 74.4062H196.244C197.049 74.4062 197.621 74.2505 197.959 73.9389C198.301 73.6241 198.471 73.2429 198.471 72.7955C198.471 72.4508 198.383 72.1326 198.208 71.8409C198.032 71.5459 197.782 71.3106 197.457 71.1349C197.132 70.956 196.748 70.8665 196.304 70.8665H193.798V74.4062ZM193.798 69.7926H196.085C196.456 69.7926 196.791 69.7197 197.089 69.5739C197.391 69.428 197.629 69.2225 197.805 68.9574C197.984 68.6922 198.074 68.3807 198.074 68.0227C198.074 67.5753 197.918 67.1958 197.606 66.8842C197.295 66.5694 196.801 66.4119 196.125 66.4119H193.798V69.7926ZM203.759 75.679C203.275 75.679 202.835 75.5878 202.441 75.4055C202.047 75.2199 201.733 74.9531 201.501 74.6051C201.269 74.2538 201.153 73.8295 201.153 73.3324C201.153 72.8949 201.24 72.5402 201.412 72.2685C201.584 71.9934 201.815 71.7779 202.103 71.6222C202.391 71.4664 202.71 71.3504 203.058 71.2741C203.409 71.1946 203.762 71.1316 204.116 71.0852C204.58 71.0256 204.957 70.9808 205.245 70.951C205.537 70.9179 205.749 70.8632 205.881 70.7869C206.017 70.7107 206.085 70.5781 206.085 70.3892V70.3494C206.085 69.8589 205.951 69.4777 205.683 69.206C205.417 68.9342 205.015 68.7983 204.474 68.7983C203.914 68.7983 203.475 68.9209 203.157 69.1662C202.839 69.4115 202.615 69.6733 202.486 69.9517L201.372 69.554C201.571 69.09 201.836 68.7287 202.168 68.4702C202.502 68.2083 202.867 68.026 203.261 67.9233C203.659 67.8172 204.05 67.7642 204.435 67.7642C204.68 67.7642 204.962 67.794 205.28 67.8537C205.601 67.91 205.911 68.0277 206.21 68.2067C206.511 68.3857 206.761 68.6558 206.96 69.017C207.159 69.3783 207.259 69.8622 207.259 70.4688V75.5H206.085V74.4659H206.026C205.946 74.6316 205.813 74.8089 205.628 74.9979C205.442 75.1868 205.195 75.3475 204.887 75.4801C204.579 75.6127 204.203 75.679 203.759 75.679ZM203.938 74.625C204.402 74.625 204.793 74.5339 205.111 74.3516C205.432 74.1693 205.674 73.9339 205.837 73.6456C206.002 73.3572 206.085 73.054 206.085 72.7358V71.6619C206.036 71.7216 205.926 71.7763 205.757 71.826C205.591 71.8724 205.399 71.9138 205.18 71.9503C204.965 71.9834 204.754 72.0133 204.549 72.0398C204.347 72.063 204.183 72.0829 204.057 72.0994C203.752 72.1392 203.467 72.2038 203.202 72.2933C202.94 72.3795 202.728 72.5104 202.565 72.6861C202.406 72.8584 202.327 73.0937 202.327 73.392C202.327 73.7997 202.478 74.108 202.779 74.3168C203.084 74.5223 203.47 74.625 203.938 74.625Z" fill="#285D9A"/>
<path d="M130 78.2841H208.332V79.2386H130V78.2841Z" fill="#285D9A"/>
<path d="M215 69.5C217.209 69.5 219 67.7094 219 65.5C219 63.2906 217.209 61.5 215 61.5C212.791 61.5 211 63.2906 211 65.5C211 67.7094 212.791 69.5 215 69.5ZM215.375 67.125C215.375 67.3312 215.206 67.5 215 67.5C214.794 67.5 214.625 67.332 214.625 67.125V65.125C214.625 64.918 214.793 64.75 215 64.75C215.207 64.75 215.375 64.9172 215.375 65.125V67.125ZM215 63.25C215.271 63.25 215.491 63.47 215.491 63.7412C215.491 64.0125 215.271 64.2325 215 64.2325C214.729 64.2325 214.509 64.0125 214.509 63.7412C214.509 63.4703 214.728 63.25 215 63.25Z" fill="#2F913F"/>
<path d="M130.676 95.4119V94.3182H138.312V95.4119H135.111V104.5H133.878V95.4119H130.676ZM141.264 104.679C140.78 104.679 140.341 104.588 139.947 104.406C139.552 104.22 139.239 103.953 139.007 103.605C138.775 103.254 138.659 102.83 138.659 102.332C138.659 101.895 138.745 101.54 138.918 101.268C139.09 100.993 139.32 100.778 139.609 100.622C139.897 100.466 140.215 100.35 140.563 100.274C140.915 100.195 141.268 100.132 141.622 100.085C142.086 100.026 142.463 99.9808 142.751 99.951C143.043 99.9179 143.255 99.8632 143.387 99.7869C143.523 99.7107 143.591 99.5781 143.591 99.3892V99.3494C143.591 98.8589 143.457 98.4777 143.188 98.206C142.923 97.9342 142.521 97.7983 141.98 97.7983C141.42 97.7983 140.981 97.9209 140.663 98.1662C140.345 98.4115 140.121 98.6733 139.992 98.9517L138.878 98.554C139.077 98.09 139.342 97.7287 139.673 97.4702C140.008 97.2083 140.373 97.026 140.767 96.9233C141.165 96.8172 141.556 96.7642 141.941 96.7642C142.186 96.7642 142.468 96.794 142.786 96.8537C143.107 96.91 143.417 97.0277 143.715 97.2067C144.017 97.3857 144.267 97.6558 144.466 98.017C144.665 98.3783 144.764 98.8622 144.764 99.4688V104.5H143.591V103.466H143.531C143.452 103.632 143.319 103.809 143.134 103.998C142.948 104.187 142.701 104.348 142.393 104.48C142.085 104.613 141.709 104.679 141.264 104.679ZM141.443 103.625C141.907 103.625 142.298 103.534 142.617 103.352C142.938 103.169 143.18 102.934 143.343 102.646C143.508 102.357 143.591 102.054 143.591 101.736V100.662C143.541 100.722 143.432 100.776 143.263 100.826C143.097 100.872 142.905 100.914 142.686 100.95C142.471 100.983 142.26 101.013 142.055 101.04C141.853 101.063 141.689 101.083 141.563 101.099C141.258 101.139 140.973 101.204 140.708 101.293C140.446 101.379 140.234 101.51 140.071 101.686C139.912 101.858 139.833 102.094 139.833 102.392C139.833 102.8 139.983 103.108 140.285 103.317C140.59 103.522 140.976 103.625 141.443 103.625ZM146.906 107.364V96.8636H148.039V98.0767H148.179C148.265 97.9441 148.384 97.7751 148.537 97.5696C148.692 97.3608 148.914 97.1752 149.203 97.0128C149.494 96.8471 149.889 96.7642 150.386 96.7642C151.029 96.7642 151.596 96.925 152.086 97.2464C152.577 97.5679 152.96 98.0237 153.235 98.6136C153.51 99.2036 153.647 99.8996 153.647 100.702C153.647 101.51 153.51 102.211 153.235 102.805C152.96 103.395 152.578 103.852 152.091 104.177C151.604 104.498 151.042 104.659 150.406 104.659C149.915 104.659 149.523 104.578 149.228 104.415C148.933 104.25 148.706 104.062 148.547 103.854C148.387 103.642 148.265 103.466 148.179 103.327H148.079V107.364H146.906ZM148.059 100.682C148.059 101.259 148.144 101.767 148.313 102.208C148.482 102.646 148.729 102.989 149.054 103.237C149.378 103.482 149.776 103.605 150.247 103.605C150.737 103.605 151.147 103.476 151.475 103.217C151.806 102.955 152.055 102.604 152.221 102.163C152.39 101.719 152.474 101.225 152.474 100.682C152.474 100.145 152.391 99.661 152.225 99.2301C152.063 98.7959 151.816 98.4529 151.485 98.201C151.157 97.9458 150.744 97.8182 150.247 97.8182C149.77 97.8182 149.368 97.9392 149.044 98.1811C148.719 98.4197 148.474 98.7545 148.308 99.1854C148.142 99.6129 148.059 100.112 148.059 100.682ZM158.977 95.4119V94.3182H166.613V95.4119H163.412V104.5H162.179V95.4119H158.977ZM169.53 99.9062V104.5H168.357V94.3182H169.53V98.0568H169.63C169.809 97.6624 170.077 97.3492 170.435 97.1172C170.796 96.8819 171.277 96.7642 171.877 96.7642C172.397 96.7642 172.853 96.8686 173.244 97.0774C173.635 97.2829 173.939 97.5994 174.154 98.027C174.373 98.4512 174.482 98.9915 174.482 99.6477V104.5H173.309V99.7273C173.309 99.1207 173.151 98.6518 172.836 98.3203C172.525 97.9856 172.092 97.8182 171.539 97.8182C171.154 97.8182 170.81 97.8994 170.505 98.0618C170.203 98.2242 169.965 98.4612 169.789 98.7727C169.617 99.0843 169.53 99.4621 169.53 99.9062ZM179.83 104.659C179.094 104.659 178.46 104.497 177.926 104.172C177.396 103.844 176.987 103.386 176.698 102.8C176.413 102.21 176.271 101.524 176.271 100.741C176.271 99.9593 176.413 99.2699 176.698 98.6733C176.987 98.0734 177.388 97.6061 177.901 97.2713C178.418 96.9332 179.022 96.7642 179.711 96.7642C180.109 96.7642 180.501 96.8305 180.889 96.9631C181.277 97.0956 181.63 97.3111 181.948 97.6094C182.266 97.9044 182.52 98.2955 182.709 98.7827C182.898 99.2699 182.992 99.8698 182.992 100.582V101.08H177.106V100.065H181.799C181.799 99.6345 181.713 99.25 181.54 98.9119C181.371 98.5739 181.129 98.3071 180.815 98.1115C180.503 97.916 180.135 97.8182 179.711 97.8182C179.244 97.8182 178.839 97.9342 178.498 98.1662C178.16 98.3949 177.9 98.6932 177.717 99.0611C177.535 99.429 177.444 99.8234 177.444 100.244V100.92C177.444 101.497 177.543 101.986 177.742 102.387C177.944 102.785 178.224 103.088 178.582 103.297C178.94 103.502 179.356 103.605 179.83 103.605C180.138 103.605 180.417 103.562 180.665 103.476C180.917 103.386 181.134 103.254 181.317 103.078C181.499 102.899 181.64 102.677 181.739 102.412L182.873 102.73C182.754 103.115 182.553 103.453 182.271 103.744C181.99 104.033 181.642 104.258 181.227 104.42C180.813 104.58 180.347 104.659 179.83 104.659ZM188.874 104.5V94.3182H190.107V103.406H194.839V104.5H188.874ZM199.692 104.659C199.002 104.659 198.397 104.495 197.877 104.167C197.36 103.839 196.956 103.38 196.664 102.79C196.376 102.2 196.232 101.51 196.232 100.722C196.232 99.9261 196.376 99.2318 196.664 98.6385C196.956 98.0452 197.36 97.5845 197.877 97.2564C198.397 96.9283 199.002 96.7642 199.692 96.7642C200.381 96.7642 200.984 96.9283 201.501 97.2564C202.022 97.5845 202.426 98.0452 202.714 98.6385C203.006 99.2318 203.152 99.9261 203.152 100.722C203.152 101.51 203.006 102.2 202.714 102.79C202.426 103.38 202.022 103.839 201.501 104.167C200.984 104.495 200.381 104.659 199.692 104.659ZM199.692 103.605C200.215 103.605 200.646 103.471 200.984 103.202C201.322 102.934 201.573 102.581 201.735 102.143C201.897 101.706 201.979 101.232 201.979 100.722C201.979 100.211 201.897 99.7356 201.735 99.2947C201.573 98.8539 201.322 98.4976 200.984 98.2259C200.646 97.9541 200.215 97.8182 199.692 97.8182C199.168 97.8182 198.737 97.9541 198.399 98.2259C198.061 98.4976 197.811 98.8539 197.648 99.2947C197.486 99.7356 197.405 100.211 197.405 100.722C197.405 101.232 197.486 101.706 197.648 102.143C197.811 102.581 198.061 102.934 198.399 103.202C198.737 103.471 199.168 103.605 199.692 103.605ZM204.943 107.364V96.8636H206.077V98.0767H206.216C206.302 97.9441 206.421 97.7751 206.574 97.5696C206.729 97.3608 206.952 97.1752 207.24 97.0128C207.532 96.8471 207.926 96.7642 208.423 96.7642C209.066 96.7642 209.633 96.925 210.123 97.2464C210.614 97.5679 210.997 98.0237 211.272 98.6136C211.547 99.2036 211.684 99.8996 211.684 100.702C211.684 101.51 211.547 102.211 211.272 102.805C210.997 103.395 210.616 103.852 210.128 104.177C209.641 104.498 209.079 104.659 208.443 104.659C207.952 104.659 207.56 104.578 207.265 104.415C206.97 104.25 206.743 104.062 206.584 103.854C206.425 103.642 206.302 103.466 206.216 103.327H206.116V107.364H204.943ZM206.096 100.682C206.096 101.259 206.181 101.767 206.35 102.208C206.519 102.646 206.766 102.989 207.091 103.237C207.416 103.482 207.813 103.605 208.284 103.605C208.774 103.605 209.184 103.476 209.512 103.217C209.843 102.955 210.092 102.604 210.258 102.163C210.427 101.719 210.511 101.225 210.511 100.682C210.511 100.145 210.428 99.661 210.263 99.2301C210.1 98.7959 209.853 98.4529 209.522 98.201C209.194 97.9458 208.781 97.8182 208.284 97.8182C207.807 97.8182 207.406 97.9392 207.081 98.1811C206.756 98.4197 206.511 98.7545 206.345 99.1854C206.179 99.6129 206.096 100.112 206.096 100.682Z" fill="#285D9A"/>
<path d="M130 107.284H212.4V108.239H130V107.284Z" fill="#285D9A"/>
<path d="M219 98.5C221.209 98.5 223 96.7094 223 94.5C223 92.2906 221.209 90.5 219 90.5C216.791 90.5 215 92.2906 215 94.5C215 96.7094 216.791 98.5 219 98.5ZM219.375 96.125C219.375 96.3312 219.206 96.5 219 96.5C218.794 96.5 218.625 96.332 218.625 96.125V94.125C218.625 93.918 218.793 93.75 219 93.75C219.207 93.75 219.375 93.9172 219.375 94.125V96.125ZM219 92.25C219.271 92.25 219.491 92.47 219.491 92.7412C219.491 93.0125 219.271 93.2325 219 93.2325C218.729 93.2325 218.509 93.0125 218.509 92.7412C218.509 92.4703 218.728 92.25 219 92.25Z" fill="#2F913F"/>
<defs>
<clipPath id="clip0_1278_8694">
<rect width="24" height="24" fill="white"/>
</clipPath>
</defs>
</svg>
