<svg width="23" height="23" viewBox="0 0 23 23" fill="none" xmlns="http://www.w3.org/2000/svg">
<g clip-path="url(#clip0_750_12236)">
<path d="M17.25 23H10.9729C9.93794 23 8.9221 22.5687 8.20335 21.8212L1.20752 14.5283L3.19127 12.7746C3.78544 12.2475 4.65752 12.1421 5.3571 12.5158L7.66669 13.7425V4.59042C7.66669 3.26792 8.74002 2.19458 10.0625 2.19458C10.2254 2.19458 10.3884 2.21375 10.5513 2.2425C10.6375 0.996666 11.6725 0.00958252 12.9375 0.00958252C13.7617 0.00958252 14.4804 0.421666 14.9117 1.05417C15.1896 0.939166 15.4963 0.881666 15.8125 0.881666C17.135 0.881666 18.2084 1.955 18.2084 3.2775V3.54583C18.3617 3.51708 18.5246 3.49792 18.6875 3.49792C20.01 3.49792 21.0834 4.57125 21.0834 5.89375V19.1667C21.0834 21.2846 19.3679 23 17.25 23ZM3.96752 14.6433L9.58335 20.4892C9.94752 20.8629 10.4459 21.0833 10.9634 21.0833H17.25C18.3042 21.0833 19.1667 20.2208 19.1667 19.1667V5.89375C19.1667 5.62542 18.9559 5.41458 18.6875 5.41458C18.4192 5.41458 18.2084 5.62542 18.2084 5.89375V11.5H16.2917V3.2775C16.2917 3.00917 16.0809 2.79833 15.8125 2.79833C15.5442 2.79833 15.3334 3.00917 15.3334 3.2775V11.5H13.4167V2.40542C13.4167 2.13708 13.2059 1.92625 12.9375 1.92625C12.6692 1.92625 12.4584 2.13708 12.4584 2.40542V11.5H10.5417V4.59042C10.5417 4.32208 10.3309 4.11125 10.0625 4.11125C9.79419 4.11125 9.58335 4.33167 9.58335 4.59042V16.9242L4.45627 14.2121L3.96752 14.6433Z" fill="#285D9A"/>
</g>
<defs>
<clipPath id="clip0_750_12236">
<rect width="23" height="23" fill="white"/>
</clipPath>
</defs>
</svg>
