<svg width="381" height="85" viewBox="0 0 381 85" fill="none" xmlns="http://www.w3.org/2000/svg">
<rect x="4" width="373" height="77" rx="20" fill="white"/>
<g filter="url(#filter0_d_1278_8741)">
<mask id="path-2-inside-1_1278_8741" fill="white">
<path d="M4 10C4 4.47715 8.47715 0 14 0H367C372.523 0 377 4.47715 377 10V30C377 35.5228 372.523 40 367 40H14C8.47715 40 4 35.5228 4 30V10Z"/>
</mask>
<path d="M4 10C4 4.47715 8.47715 0 14 0H367C372.523 0 377 4.47715 377 10V30C377 35.5228 372.523 40 367 40H14C8.47715 40 4 35.5228 4 30V10Z" fill="#2D3748" shape-rendering="crispEdges"/>
<path d="M4 0H377H4ZM377 30C377 36.0751 372.075 41 366 41H15C8.92487 41 4 36.0751 4 30C4 34.9706 8.47715 39 14 39H367C372.523 39 377 34.9706 377 30ZM4 40V0V40ZM377 0V40V0Z" fill="#F1F1F1" mask="url(#path-2-inside-1_1278_8741)"/>
<g clip-path="url(#clip0_1278_8741)">
<path d="M36 15.13L36.97 17.42L37.44 18.53L38.64 18.63L41.11 18.84L39.23 20.47L38.32 21.26L38.59 22.44L39.15 24.85L37.03 23.57L36 22.93L34.97 23.55L32.85 24.83L33.41 22.42L33.68 21.24L32.77 20.45L30.89 18.82L33.36 18.61L34.56 18.51L35.03 17.4L36 15.13ZM36 10L33.19 16.63L26 17.24L31.46 21.97L29.82 29L36 25.27L42.18 29L40.54 21.97L46 17.24L38.81 16.63L36 10Z" fill="#F1F1F1"/>
</g>
<path d="M55.6399 25.5H53.3331L56.848 15.3182H59.6222L63.1321 25.5H60.8253L58.2749 17.6449H58.1953L55.6399 25.5ZM55.4957 21.4979H60.9446V23.1783H55.4957V21.4979ZM67.9011 17.8636V19.4545H63.3024V17.8636H67.9011ZM64.3464 16.0341H66.4643V23.1534C66.4643 23.349 66.4941 23.5014 66.5538 23.6108C66.6135 23.7169 66.6963 23.7914 66.8024 23.8345C66.9118 23.8776 67.0377 23.8991 67.1802 23.8991C67.2797 23.8991 67.3791 23.8909 67.4785 23.8743C67.5779 23.8544 67.6542 23.8395 67.7072 23.8295L68.0403 25.4055C67.9342 25.4387 67.7851 25.4768 67.5929 25.5199C67.4006 25.5663 67.167 25.5945 66.8919 25.6044C66.3815 25.6243 65.934 25.5563 65.5495 25.4006C65.1684 25.2448 64.8717 25.0028 64.6596 24.6747C64.4475 24.3466 64.3431 23.9323 64.3464 23.4318V16.0341ZM73.3425 17.8636V19.4545H68.7438V17.8636H73.3425ZM69.7878 16.0341H71.9057V23.1534C71.9057 23.349 71.9355 23.5014 71.9952 23.6108C72.0549 23.7169 72.1377 23.7914 72.2438 23.8345C72.3532 23.8776 72.4791 23.8991 72.6216 23.8991C72.7211 23.8991 72.8205 23.8909 72.9199 23.8743C73.0194 23.8544 73.0956 23.8395 73.1486 23.8295L73.4817 25.4055C73.3757 25.4387 73.2265 25.4768 73.0343 25.5199C72.842 25.5663 72.6084 25.5945 72.3333 25.6044C71.8229 25.6243 71.3754 25.5563 70.9909 25.4006C70.6098 25.2448 70.3132 25.0028 70.101 24.6747C69.8889 24.3466 69.7845 23.9323 69.7878 23.4318V16.0341ZM78.1202 25.6491C77.3347 25.6491 76.6586 25.4901 76.0918 25.1719C75.5283 24.8504 75.0942 24.3963 74.7892 23.8097C74.4843 23.2197 74.3319 22.522 74.3319 21.7166C74.3319 20.9311 74.4843 20.2417 74.7892 19.6484C75.0942 19.0552 75.5234 18.5928 76.0769 18.2614C76.6337 17.9299 77.2866 17.7642 78.0357 17.7642C78.5395 17.7642 79.0085 17.8454 79.4426 18.0078C79.8801 18.1669 80.2613 18.4072 80.5861 18.7287C80.9142 19.0502 81.1694 19.4545 81.3517 19.9418C81.534 20.4257 81.6252 20.9924 81.6252 21.642V22.2237H75.177V20.9112H79.6316C79.6316 20.6063 79.5653 20.3362 79.4327 20.1009C79.3001 19.8655 79.1162 19.6816 78.8809 19.549C78.6489 19.4131 78.3787 19.3452 78.0705 19.3452C77.749 19.3452 77.464 19.4197 77.2154 19.5689C76.9701 19.7147 76.7779 19.9119 76.6387 20.1605C76.4995 20.4058 76.4282 20.6792 76.4249 20.9808V22.2287C76.4249 22.6065 76.4945 22.933 76.6337 23.2081C76.7762 23.4832 76.9767 23.6953 77.2353 23.8445C77.4938 23.9936 77.8004 24.0682 78.155 24.0682C78.3903 24.0682 78.6058 24.035 78.8013 23.9688C78.9969 23.9025 79.1642 23.803 79.3034 23.6705C79.4426 23.5379 79.5487 23.3755 79.6216 23.1832L81.5804 23.3125C81.481 23.7831 81.2772 24.1941 80.9689 24.5455C80.664 24.8935 80.2696 25.1652 79.7857 25.3608C79.3051 25.553 78.7499 25.6491 78.1202 25.6491ZM85.1252 21.0852V25.5H83.0073V17.8636H85.0257V19.2109H85.1152C85.2843 18.7668 85.5676 18.4155 85.9654 18.157C86.3631 17.8951 86.8453 17.7642 87.4121 17.7642C87.9424 17.7642 88.4048 17.8802 88.7992 18.1122C89.1936 18.3442 89.5002 18.6757 89.7189 19.1065C89.9377 19.5341 90.0471 20.0445 90.0471 20.6378V25.5H87.9292V21.0156C87.9325 20.5483 87.8132 20.1837 87.5712 19.9219C87.3292 19.6567 86.9962 19.5241 86.5719 19.5241C86.2869 19.5241 86.035 19.5855 85.8162 19.7081C85.6008 19.8307 85.4318 20.0097 85.3091 20.245C85.1898 20.477 85.1285 20.7571 85.1252 21.0852ZM94.5302 25.6243C93.9502 25.6243 93.4248 25.4751 92.9542 25.1768C92.4869 24.8752 92.1156 24.4328 91.8406 23.8494C91.5688 23.2628 91.4329 22.5436 91.4329 21.6918C91.4329 20.8168 91.5737 20.0893 91.8555 19.5092C92.1372 18.9259 92.5117 18.4901 92.979 18.2017C93.4497 17.91 93.9651 17.7642 94.5252 17.7642C94.9528 17.7642 95.3091 17.8371 95.5941 17.983C95.8825 18.1255 96.1145 18.3045 96.2901 18.5199C96.4691 18.732 96.605 18.9408 96.6978 19.1463H96.7624V15.3182H98.8754V25.5H96.7873V24.277H96.6978C96.5984 24.4891 96.4575 24.6996 96.2752 24.9084C96.0962 25.1139 95.8626 25.2846 95.5742 25.4205C95.2892 25.5563 94.9412 25.6243 94.5302 25.6243ZM95.2013 23.9389C95.5427 23.9389 95.8311 23.8461 96.0664 23.6605C96.305 23.4716 96.4873 23.2081 96.6133 22.87C96.7425 22.532 96.8072 22.1359 96.8072 21.6818C96.8072 21.2277 96.7442 20.8333 96.6183 20.4986C96.4923 20.1638 96.31 19.9053 96.0714 19.723C95.8327 19.5407 95.5427 19.4496 95.2013 19.4496C94.8533 19.4496 94.56 19.544 94.3214 19.733C94.0827 19.9219 93.9021 20.1837 93.7795 20.5185C93.6568 20.8532 93.5955 21.241 93.5955 21.6818C93.5955 22.1259 93.6568 22.5187 93.7795 22.8601C93.9054 23.1982 94.0861 23.4633 94.3214 23.6555C94.56 23.8445 94.8533 23.9389 95.2013 23.9389ZM104.097 25.6491C103.311 25.6491 102.635 25.4901 102.068 25.1719C101.505 24.8504 101.071 24.3963 100.766 23.8097C100.461 23.2197 100.308 22.522 100.308 21.7166C100.308 20.9311 100.461 20.2417 100.766 19.6484C101.071 19.0552 101.5 18.5928 102.053 18.2614C102.61 17.9299 103.263 17.7642 104.012 17.7642C104.516 17.7642 104.985 17.8454 105.419 18.0078C105.857 18.1669 106.238 18.4072 106.563 18.7287C106.891 19.0502 107.146 19.4545 107.328 19.9418C107.511 20.4257 107.602 20.9924 107.602 21.642V22.2237H101.154V20.9112H105.608C105.608 20.6063 105.542 20.3362 105.409 20.1009C105.277 19.8655 105.093 19.6816 104.857 19.549C104.625 19.4131 104.355 19.3452 104.047 19.3452C103.726 19.3452 103.441 19.4197 103.192 19.5689C102.947 19.7147 102.754 19.9119 102.615 20.1605C102.476 20.4058 102.405 20.6792 102.401 20.9808V22.2287C102.401 22.6065 102.471 22.933 102.61 23.2081C102.753 23.4832 102.953 23.6953 103.212 23.8445C103.47 23.9936 103.777 24.0682 104.132 24.0682C104.367 24.0682 104.582 24.035 104.778 23.9688C104.973 23.9025 105.141 23.803 105.28 23.6705C105.419 23.5379 105.525 23.3755 105.598 23.1832L107.557 23.3125C107.458 23.7831 107.254 24.1941 106.945 24.5455C106.641 24.8935 106.246 25.1652 105.762 25.3608C105.282 25.553 104.727 25.6491 104.097 25.6491ZM112.464 25.6491C111.678 25.6491 111.002 25.4901 110.436 25.1719C109.872 24.8504 109.438 24.3963 109.133 23.8097C108.828 23.2197 108.676 22.522 108.676 21.7166C108.676 20.9311 108.828 20.2417 109.133 19.6484C109.438 19.0552 109.867 18.5928 110.421 18.2614C110.977 17.9299 111.63 17.7642 112.379 17.7642C112.883 17.7642 113.352 17.8454 113.786 18.0078C114.224 18.1669 114.605 18.4072 114.93 18.7287C115.258 19.0502 115.513 19.4545 115.695 19.9418C115.878 20.4257 115.969 20.9924 115.969 21.642V22.2237H109.521V20.9112H113.975C113.975 20.6063 113.909 20.3362 113.776 20.1009C113.644 19.8655 113.46 19.6816 113.225 19.549C112.993 19.4131 112.722 19.3452 112.414 19.3452C112.093 19.3452 111.808 19.4197 111.559 19.5689C111.314 19.7147 111.122 19.9119 110.982 20.1605C110.843 20.4058 110.772 20.6792 110.769 20.9808V22.2287C110.769 22.6065 110.838 22.933 110.977 23.2081C111.12 23.4832 111.32 23.6953 111.579 23.8445C111.838 23.9936 112.144 24.0682 112.499 24.0682C112.734 24.0682 112.95 24.035 113.145 23.9688C113.341 23.9025 113.508 23.803 113.647 23.6705C113.786 23.5379 113.892 23.3755 113.965 23.1832L115.924 23.3125C115.825 23.7831 115.621 24.1941 115.313 24.5455C115.008 24.8935 114.613 25.1652 114.129 25.3608C113.649 25.553 113.094 25.6491 112.464 25.6491Z" fill="white"/>
<path d="M138.233 25.5V15.3182H144.338V16.4119H139.466V19.8523H143.881V20.946H139.466V25.5H138.233ZM146.209 25.5V17.8636H147.342V19.017H147.422C147.561 18.6392 147.813 18.3326 148.177 18.0973C148.542 17.862 148.953 17.7443 149.41 17.7443C149.497 17.7443 149.604 17.746 149.733 17.7493C149.863 17.7526 149.961 17.7576 150.027 17.7642V18.9574C149.987 18.9474 149.896 18.9325 149.753 18.9126C149.614 18.8894 149.467 18.8778 149.311 18.8778C148.94 18.8778 148.608 18.9557 148.317 19.1115C148.028 19.264 147.8 19.4761 147.631 19.7479C147.465 20.0163 147.382 20.3229 147.382 20.6676V25.5H146.209ZM154.387 25.6591C153.651 25.6591 153.016 25.4967 152.483 25.1719C151.952 24.8438 151.543 24.3864 151.255 23.7997C150.97 23.2098 150.827 22.5237 150.827 21.7415C150.827 20.9593 150.97 20.2699 151.255 19.6733C151.543 19.0734 151.944 18.6061 152.458 18.2713C152.975 17.9332 153.578 17.7642 154.268 17.7642C154.665 17.7642 155.058 17.8305 155.446 17.9631C155.834 18.0956 156.187 18.3111 156.505 18.6094C156.823 18.9044 157.077 19.2955 157.265 19.7827C157.454 20.2699 157.549 20.8698 157.549 21.5824V22.0795H151.662V21.0653H156.356C156.356 20.6345 156.269 20.25 156.097 19.9119C155.928 19.5739 155.686 19.3071 155.371 19.1115C155.06 18.916 154.692 18.8182 154.268 18.8182C153.8 18.8182 153.396 18.9342 153.055 19.1662C152.716 19.3949 152.456 19.6932 152.274 20.0611C152.092 20.429 152.001 20.8234 152.001 21.2443V21.9205C152.001 22.4972 152.1 22.986 152.299 23.3871C152.501 23.7848 152.781 24.0881 153.139 24.2969C153.497 24.5024 153.913 24.6051 154.387 24.6051C154.695 24.6051 154.974 24.562 155.222 24.4759C155.474 24.3864 155.691 24.2538 155.873 24.0781C156.056 23.8991 156.197 23.6771 156.296 23.4119L157.43 23.7301C157.31 24.1146 157.11 24.4527 156.828 24.7443C156.546 25.0327 156.198 25.258 155.784 25.4205C155.37 25.5795 154.904 25.6591 154.387 25.6591ZM164.743 19.5739L163.689 19.8722C163.622 19.6965 163.525 19.5258 163.395 19.3601C163.269 19.1911 163.097 19.0518 162.878 18.9425C162.66 18.8331 162.38 18.7784 162.038 18.7784C161.571 18.7784 161.181 18.8861 160.87 19.1016C160.562 19.3137 160.407 19.5838 160.407 19.9119C160.407 20.2036 160.514 20.4339 160.726 20.603C160.938 20.772 161.269 20.9129 161.72 21.0256L162.854 21.304C163.536 21.4697 164.045 21.7232 164.38 22.0646C164.715 22.4027 164.882 22.8385 164.882 23.3722C164.882 23.8097 164.756 24.2008 164.504 24.5455C164.256 24.8902 163.907 25.1619 163.46 25.3608C163.013 25.5597 162.492 25.6591 161.899 25.6591C161.12 25.6591 160.475 25.4901 159.965 25.152C159.455 24.8139 159.131 24.3201 158.996 23.6705L160.109 23.392C160.215 23.803 160.416 24.1113 160.711 24.3168C161.009 24.5223 161.398 24.625 161.879 24.625C162.426 24.625 162.86 24.509 163.182 24.277C163.506 24.0417 163.669 23.7599 163.669 23.4318C163.669 23.1667 163.576 22.9446 163.39 22.7656C163.205 22.5833 162.92 22.4474 162.535 22.358L161.263 22.0597C160.563 21.8939 160.05 21.6371 159.721 21.2891C159.397 20.9377 159.234 20.4986 159.234 19.9716C159.234 19.5407 159.355 19.1596 159.597 18.8281C159.842 18.4967 160.175 18.2365 160.596 18.0476C161.021 17.8587 161.501 17.7642 162.038 17.7642C162.794 17.7642 163.387 17.9299 163.818 18.2614C164.252 18.5928 164.56 19.0303 164.743 19.5739ZM167.821 20.9062V25.5H166.648V15.3182H167.821V19.0568H167.921C168.1 18.6624 168.368 18.3492 168.726 18.1172C169.087 17.8819 169.568 17.7642 170.168 17.7642C170.688 17.7642 171.144 17.8686 171.535 18.0774C171.926 18.2829 172.23 18.5994 172.445 19.027C172.664 19.4512 172.773 19.9915 172.773 20.6477V25.5H171.6V20.7273C171.6 20.1207 171.442 19.6518 171.127 19.3203C170.816 18.9856 170.383 18.8182 169.83 18.8182C169.445 18.8182 169.101 18.8994 168.796 19.0618C168.494 19.2242 168.256 19.4612 168.08 19.7727C167.908 20.0843 167.821 20.4621 167.821 20.9062ZM178.121 25.6591C177.385 25.6591 176.751 25.4967 176.217 25.1719C175.687 24.8438 175.278 24.3864 174.989 23.7997C174.704 23.2098 174.562 22.5237 174.562 21.7415C174.562 20.9593 174.704 20.2699 174.989 19.6733C175.278 19.0734 175.679 18.6061 176.192 18.2713C176.709 17.9332 177.313 17.7642 178.002 17.7642C178.4 17.7642 178.792 17.8305 179.18 17.9631C179.568 18.0956 179.921 18.3111 180.239 18.6094C180.557 18.9044 180.811 19.2955 181 19.7827C181.189 20.2699 181.283 20.8698 181.283 21.5824V22.0795H175.397V21.0653H180.09C180.09 20.6345 180.004 20.25 179.831 19.9119C179.662 19.5739 179.421 19.3071 179.106 19.1115C178.794 18.916 178.426 18.8182 178.002 18.8182C177.535 18.8182 177.13 18.9342 176.789 19.1662C176.451 19.3949 176.191 19.6932 176.008 20.0611C175.826 20.429 175.735 20.8234 175.735 21.2443V21.9205C175.735 22.4972 175.834 22.986 176.033 23.3871C176.235 23.7848 176.515 24.0881 176.873 24.2969C177.231 24.5024 177.647 24.6051 178.121 24.6051C178.43 24.6051 178.708 24.562 178.956 24.4759C179.208 24.3864 179.425 24.2538 179.608 24.0781C179.79 23.8991 179.931 23.6771 180.03 23.4119L181.164 23.7301C181.045 24.1146 180.844 24.4527 180.562 24.7443C180.281 25.0327 179.933 25.258 179.518 25.4205C179.104 25.5795 178.638 25.6591 178.121 25.6591ZM183.068 25.5V17.8636H184.202V19.017H184.281C184.42 18.6392 184.672 18.3326 185.037 18.0973C185.401 17.862 185.812 17.7443 186.27 17.7443C186.356 17.7443 186.464 17.746 186.593 17.7493C186.722 17.7526 186.82 17.7576 186.886 17.7642V18.9574C186.846 18.9474 186.755 18.9325 186.613 18.9126C186.474 18.8894 186.326 18.8778 186.17 18.8778C185.799 18.8778 185.468 18.9557 185.176 19.1115C184.888 19.264 184.659 19.4761 184.49 19.7479C184.324 20.0163 184.241 20.3229 184.241 20.6676V25.5H183.068Z" fill="#F1F1F1"/>
<g clip-path="url(#clip1_1278_8741)">
<path d="M345 12C349.41 12 353 15.59 353 20C353 24.41 349.41 28 345 28C340.59 28 337 24.41 337 20C337 15.59 340.59 12 345 12ZM345 10C339.48 10 335 14.48 335 20C335 25.52 339.48 30 345 30C350.52 30 355 25.52 355 20C355 14.48 350.52 10 345 10ZM345 23L341 19H349L345 23Z" fill="#F1F1F1"/>
</g>
</g>
<g filter="url(#filter1_d_1278_8741)">
<rect x="4" y="40" width="373" height="37" rx="10" fill="#2D3748" shape-rendering="crispEdges"/>
<path d="M39.0516 64V53.8182H43.0686C43.8409 53.8182 44.4988 53.9657 45.0423 54.2607C45.5859 54.5523 46.0002 54.9583 46.2852 55.4787C46.5736 55.9957 46.7178 56.5923 46.7178 57.2685C46.7178 57.9446 46.5719 58.5412 46.2803 59.0582C45.9886 59.5753 45.566 59.978 45.0125 60.2663C44.4623 60.5547 43.7961 60.6989 43.0139 60.6989H40.4536V58.9737H42.6659C43.0802 58.9737 43.4216 58.9025 43.6901 58.7599C43.9618 58.6141 44.164 58.4136 44.2966 58.1584C44.4325 57.8999 44.5004 57.6032 44.5004 57.2685C44.5004 56.9304 44.4325 56.6354 44.2966 56.3835C44.164 56.1283 43.9618 55.9311 43.6901 55.7919C43.4183 55.6494 43.0736 55.5781 42.656 55.5781H41.2043V64H39.0516ZM50.1941 53.8182V64H48.0762V53.8182H50.1941ZM54.0683 64.1442C53.581 64.1442 53.1469 64.0597 52.7657 63.8906C52.3845 63.7183 52.0829 63.4647 51.8609 63.13C51.6421 62.7919 51.5327 62.371 51.5327 61.8672C51.5327 61.4429 51.6106 61.0866 51.7664 60.7983C51.9222 60.5099 52.1343 60.2779 52.4028 60.1023C52.6712 59.9266 52.9762 59.794 53.3175 59.7045C53.6622 59.6151 54.0235 59.5521 54.4014 59.5156C54.8455 59.4692 55.2034 59.4261 55.4752 59.3864C55.747 59.3433 55.9442 59.2803 56.0668 59.1974C56.1895 59.1146 56.2508 58.992 56.2508 58.8295V58.7997C56.2508 58.4848 56.1514 58.2412 55.9525 58.0689C55.7569 57.8965 55.4785 57.8104 55.1173 57.8104C54.7361 57.8104 54.4328 57.8949 54.2075 58.0639C53.9821 58.2296 53.8329 58.4384 53.76 58.6903L51.8012 58.5312C51.9006 58.0672 52.0962 57.6662 52.3879 57.3281C52.6795 56.9867 53.0557 56.7249 53.5164 56.5426C53.9804 56.357 54.5174 56.2642 55.1272 56.2642C55.5515 56.2642 55.9575 56.3139 56.3452 56.4134C56.7363 56.5128 57.0827 56.6669 57.3843 56.8757C57.6892 57.0845 57.9295 57.353 58.1052 57.6811C58.2809 58.0059 58.3687 58.3954 58.3687 58.8494V64H56.3602V62.9411H56.3005C56.1779 63.1797 56.0138 63.3902 55.8083 63.5724C55.6028 63.7514 55.3559 63.8923 55.0675 63.995C54.7792 64.0945 54.4461 64.1442 54.0683 64.1442ZM54.6748 62.6825C54.9863 62.6825 55.2614 62.6212 55.5001 62.4986C55.7387 62.3726 55.926 62.2036 56.0619 61.9915C56.1978 61.7794 56.2657 61.5391 56.2657 61.2706V60.4602C56.1994 60.5033 56.1083 60.5431 55.9923 60.5795C55.8796 60.6127 55.752 60.6442 55.6095 60.674C55.4669 60.7005 55.3244 60.7254 55.1819 60.7486C55.0394 60.7685 54.9101 60.7867 54.7941 60.8033C54.5455 60.8397 54.3284 60.8977 54.1428 60.9773C53.9572 61.0568 53.8131 61.1645 53.7103 61.3004C53.6076 61.433 53.5562 61.5987 53.5562 61.7976C53.5562 62.0859 53.6606 62.3063 53.8694 62.4588C54.0815 62.608 54.35 62.6825 54.6748 62.6825ZM62.1297 59.5852V64H60.0118V56.3636H62.0303V57.7109H62.1198C62.2888 57.2668 62.5722 56.9155 62.9699 56.657C63.3676 56.3951 63.8499 56.2642 64.4166 56.2642C64.9469 56.2642 65.4093 56.3802 65.8037 56.6122C66.1981 56.8442 66.5047 57.1757 66.7234 57.6065C66.9422 58.0341 67.0516 58.5445 67.0516 59.1378V64H64.9337V59.5156C64.937 59.0483 64.8177 58.6837 64.5757 58.4219C64.3338 58.1567 64.0007 58.0241 63.5764 58.0241C63.2914 58.0241 63.0395 58.0855 62.8207 58.2081C62.6053 58.3307 62.4363 58.5097 62.3136 58.745C62.1943 58.977 62.133 59.2571 62.1297 59.5852ZM70.8387 59.5852V64H68.7208V56.3636H70.7392V57.7109H70.8287C70.9978 57.2668 71.2812 56.9155 71.6789 56.657C72.0766 56.3951 72.5588 56.2642 73.1256 56.2642C73.6559 56.2642 74.1183 56.3802 74.5127 56.6122C74.9071 56.8442 75.2137 57.1757 75.4324 57.6065C75.6512 58.0341 75.7606 58.5445 75.7606 59.1378V64H73.6427V59.5156C73.646 59.0483 73.5267 58.6837 73.2847 58.4219C73.0428 58.1567 72.7097 58.0241 72.2854 58.0241C72.0004 58.0241 71.7485 58.0855 71.5297 58.2081C71.3143 58.3307 71.1453 58.5097 71.0226 58.745C70.9033 58.977 70.842 59.2571 70.8387 59.5852ZM80.9099 64.1491C80.1244 64.1491 79.4482 63.9901 78.8815 63.6719C78.318 63.3504 77.8838 62.8963 77.5789 62.3097C77.274 61.7197 77.1215 61.022 77.1215 60.2166C77.1215 59.4311 77.274 58.7417 77.5789 58.1484C77.8838 57.5552 78.3131 57.0928 78.8666 56.7614C79.4234 56.4299 80.0763 56.2642 80.8254 56.2642C81.3291 56.2642 81.7981 56.3454 82.2323 56.5078C82.6698 56.6669 83.051 56.9072 83.3758 57.2287C83.7039 57.5502 83.9591 57.9545 84.1414 58.4418C84.3237 58.9257 84.4149 59.4924 84.4149 60.142V60.7237H77.9667V59.4112H82.4212C82.4212 59.1063 82.355 58.8362 82.2224 58.6009C82.0898 58.3655 81.9059 58.1816 81.6705 58.049C81.4385 57.9131 81.1684 57.8452 80.8602 57.8452C80.5387 57.8452 80.2536 57.9197 80.005 58.0689C79.7598 58.2147 79.5675 58.4119 79.4283 58.6605C79.2891 58.9058 79.2179 59.1792 79.2146 59.4808V60.7287C79.2146 61.1065 79.2842 61.433 79.4234 61.7081C79.5659 61.9832 79.7664 62.1953 80.0249 62.3445C80.2835 62.4936 80.59 62.5682 80.9447 62.5682C81.18 62.5682 81.3954 62.535 81.591 62.4688C81.7865 62.4025 81.9539 62.303 82.0931 62.1705C82.2323 62.0379 82.3384 61.8755 82.4113 61.6832L84.3701 61.8125C84.2707 62.2831 84.0668 62.6941 83.7586 63.0455C83.4537 63.3935 83.0593 63.6652 82.5754 63.8608C82.0948 64.053 81.5396 64.1491 80.9099 64.1491ZM88.6109 64.1243C88.0309 64.1243 87.5055 63.9751 87.0349 63.6768C86.5675 63.3752 86.1963 62.9328 85.9212 62.3494C85.6495 61.7628 85.5136 61.0436 85.5136 60.1918C85.5136 59.3168 85.6544 58.5893 85.9362 58.0092C86.2179 57.4259 86.5924 56.9901 87.0597 56.7017C87.5304 56.41 88.0458 56.2642 88.6059 56.2642C89.0335 56.2642 89.3898 56.3371 89.6748 56.483C89.9631 56.6255 90.1952 56.8045 90.3708 57.0199C90.5498 57.232 90.6857 57.4408 90.7785 57.6463H90.8431V53.8182H92.956V64H90.868V62.777H90.7785C90.6791 62.9891 90.5382 63.1996 90.3559 63.4084C90.1769 63.6139 89.9433 63.7846 89.6549 63.9205C89.3699 64.0563 89.0219 64.1243 88.6109 64.1243ZM89.282 62.4389C89.6234 62.4389 89.9118 62.3461 90.1471 62.1605C90.3857 61.9716 90.568 61.7081 90.694 61.37C90.8232 61.032 90.8879 60.6359 90.8879 60.1818C90.8879 59.7277 90.8249 59.3333 90.6989 58.9986C90.573 58.6638 90.3907 58.4053 90.1521 58.223C89.9134 58.0407 89.6234 57.9496 89.282 57.9496C88.934 57.9496 88.6407 58.044 88.4021 58.233C88.1634 58.4219 87.9828 58.6837 87.8602 59.0185C87.7375 59.3532 87.6762 59.741 87.6762 60.1818C87.6762 60.6259 87.7375 61.0187 87.8602 61.3601C87.9861 61.6982 88.1667 61.9633 88.4021 62.1555C88.6407 62.3445 88.934 62.4389 89.282 62.4389Z" fill="#F1F1F1"/>
<mask id="path-10-inside-2_1278_8741" fill="white">
<path d="M128.333 40H252.667V77H128.333V40Z"/>
</mask>
<path d="M128.333 40H252.667V77H128.333V40Z" fill="#285D9A"/>
<path d="M129.333 77V40H127.333V77H129.333Z" fill="#F1F1F1" mask="url(#path-10-inside-2_1278_8741)"/>
<path d="M159.64 64H157.333L160.848 53.8182H163.622L167.132 64H164.825L162.275 56.1449H162.195L159.64 64ZM159.496 59.9979H164.945V61.6783H159.496V59.9979ZM171.413 64.1491C170.63 64.1491 169.958 63.9834 169.394 63.652C168.834 63.3172 168.403 62.8532 168.102 62.2599C167.803 61.6667 167.654 60.9839 167.654 60.2116C167.654 59.4295 167.805 58.7434 168.107 58.1534C168.411 57.5601 168.844 57.0978 169.404 56.7663C169.964 56.4316 170.63 56.2642 171.403 56.2642C172.069 56.2642 172.652 56.3852 173.153 56.6271C173.653 56.8691 174.049 57.2088 174.341 57.6463C174.633 58.0838 174.793 58.5975 174.823 59.1875H172.825C172.768 58.8063 172.619 58.4998 172.377 58.2678C172.138 58.0324 171.825 57.9148 171.438 57.9148C171.109 57.9148 170.823 58.0043 170.577 58.1832C170.335 58.3589 170.147 58.6158 170.011 58.9538C169.875 59.2919 169.807 59.7012 169.807 60.1818C169.807 60.669 169.873 61.0833 170.006 61.4247C170.142 61.7661 170.332 62.0263 170.577 62.2053C170.823 62.3842 171.109 62.4737 171.438 62.4737C171.679 62.4737 171.897 62.424 172.089 62.3246C172.284 62.2251 172.445 62.081 172.571 61.892C172.7 61.6998 172.785 61.4695 172.825 61.201H174.823C174.79 61.7843 174.631 62.2981 174.346 62.7422C174.064 63.183 173.675 63.5277 173.178 63.7763C172.68 64.0249 172.092 64.1491 171.413 64.1491ZM179.629 64.1491C178.847 64.1491 178.174 63.9834 177.611 63.652C177.051 63.3172 176.62 62.8532 176.318 62.2599C176.02 61.6667 175.871 60.9839 175.871 60.2116C175.871 59.4295 176.022 58.7434 176.323 58.1534C176.628 57.5601 177.061 57.0978 177.621 56.7663C178.181 56.4316 178.847 56.2642 179.619 56.2642C180.286 56.2642 180.869 56.3852 181.369 56.6271C181.87 56.8691 182.266 57.2088 182.558 57.6463C182.849 58.0838 183.01 58.5975 183.04 59.1875H181.041C180.985 58.8063 180.836 58.4998 180.594 58.2678C180.355 58.0324 180.042 57.9148 179.654 57.9148C179.326 57.9148 179.039 58.0043 178.794 58.1832C178.552 58.3589 178.363 58.6158 178.227 58.9538C178.092 59.2919 178.024 59.7012 178.024 60.1818C178.024 60.669 178.09 61.0833 178.222 61.4247C178.358 61.7661 178.549 62.0263 178.794 62.2053C179.039 62.3842 179.326 62.4737 179.654 62.4737C179.896 62.4737 180.113 62.424 180.306 62.3246C180.501 62.2251 180.662 62.081 180.788 61.892C180.917 61.6998 181.002 61.4695 181.041 61.201H183.04C183.007 61.7843 182.848 62.2981 182.563 62.7422C182.281 63.183 181.892 63.5277 181.394 63.7763C180.897 64.0249 180.309 64.1491 179.629 64.1491ZM187.876 64.1491C187.091 64.1491 186.414 63.9901 185.848 63.6719C185.284 63.3504 184.85 62.8963 184.545 62.3097C184.24 61.7197 184.088 61.022 184.088 60.2166C184.088 59.4311 184.24 58.7417 184.545 58.1484C184.85 57.5552 185.279 57.0928 185.833 56.7614C186.39 56.4299 187.042 56.2642 187.792 56.2642C188.295 56.2642 188.764 56.3454 189.199 56.5078C189.636 56.6669 190.017 56.9072 190.342 57.2287C190.67 57.5502 190.925 57.9545 191.108 58.4418C191.29 58.9257 191.381 59.4924 191.381 60.142V60.7237H184.933V59.4112H189.387C189.387 59.1063 189.321 58.8362 189.189 58.6009C189.056 58.3655 188.872 58.1816 188.637 58.049C188.405 57.9131 188.135 57.8452 187.826 57.8452C187.505 57.8452 187.22 57.9197 186.971 58.0689C186.726 58.2147 186.534 58.4119 186.395 58.6605C186.255 58.9058 186.184 59.1792 186.181 59.4808V60.7287C186.181 61.1065 186.25 61.433 186.39 61.7081C186.532 61.9832 186.733 62.1953 186.991 62.3445C187.25 62.4936 187.556 62.5682 187.911 62.5682C188.146 62.5682 188.362 62.535 188.557 62.4688C188.753 62.4025 188.92 62.303 189.059 62.1705C189.199 62.0379 189.305 61.8755 189.377 61.6832L191.336 61.8125C191.237 62.2831 191.033 62.6941 190.725 63.0455C190.42 63.3935 190.025 63.6652 189.542 63.8608C189.061 64.053 188.506 64.1491 187.876 64.1491ZM192.763 66.8636V56.3636H194.851V57.6463H194.946C195.038 57.4408 195.173 57.232 195.348 57.0199C195.527 56.8045 195.759 56.6255 196.044 56.483C196.333 56.3371 196.691 56.2642 197.118 56.2642C197.675 56.2642 198.189 56.41 198.659 56.7017C199.13 56.9901 199.506 57.4259 199.788 58.0092C200.07 58.5893 200.211 59.3168 200.211 60.1918C200.211 61.0436 200.073 61.7628 199.798 62.3494C199.526 62.9328 199.155 63.3752 198.684 63.6768C198.217 63.9751 197.693 64.1243 197.113 64.1243C196.702 64.1243 196.353 64.0563 196.064 63.9205C195.779 63.7846 195.546 63.6139 195.363 63.4084C195.181 63.1996 195.042 62.9891 194.946 62.777H194.881V66.8636H192.763ZM194.836 60.1818C194.836 60.6359 194.899 61.032 195.025 61.37C195.151 61.7081 195.333 61.9716 195.572 62.1605C195.811 62.3461 196.101 62.4389 196.442 62.4389C196.787 62.4389 197.078 62.3445 197.317 62.1555C197.556 61.9633 197.736 61.6982 197.859 61.3601C197.985 61.0187 198.048 60.6259 198.048 60.1818C198.048 59.741 197.987 59.3532 197.864 59.0185C197.741 58.6837 197.561 58.4219 197.322 58.233C197.083 58.044 196.79 57.9496 196.442 57.9496C196.097 57.9496 195.806 58.0407 195.567 58.223C195.332 58.4053 195.151 58.6638 195.025 58.9986C194.899 59.3333 194.836 59.7277 194.836 60.1818ZM205.684 56.3636V57.9545H201.086V56.3636H205.684ZM202.13 54.5341H204.248V61.6534C204.248 61.849 204.277 62.0014 204.337 62.1108C204.397 62.2169 204.48 62.2914 204.586 62.3345C204.695 62.3776 204.821 62.3991 204.963 62.3991C205.063 62.3991 205.162 62.3909 205.262 62.3743C205.361 62.3544 205.437 62.3395 205.49 62.3295L205.824 63.9055C205.717 63.9387 205.568 63.9768 205.376 64.0199C205.184 64.0663 204.95 64.0945 204.675 64.1044C204.165 64.1243 203.717 64.0563 203.333 63.9006C202.952 63.7448 202.655 63.5028 202.443 63.1747C202.231 62.8466 202.126 62.4323 202.13 61.9318V54.5341ZM210.462 64.1491C209.676 64.1491 209 63.9901 208.434 63.6719C207.87 63.3504 207.436 62.8963 207.131 62.3097C206.826 61.7197 206.674 61.022 206.674 60.2166C206.674 59.4311 206.826 58.7417 207.131 58.1484C207.436 57.5552 207.865 57.0928 208.419 56.7614C208.975 56.4299 209.628 56.2642 210.377 56.2642C210.881 56.2642 211.35 56.3454 211.784 56.5078C212.222 56.6669 212.603 56.9072 212.928 57.2287C213.256 57.5502 213.511 57.9545 213.694 58.4418C213.876 58.9257 213.967 59.4924 213.967 60.142V60.7237H207.519V59.4112H211.973C211.973 59.1063 211.907 58.8362 211.775 58.6009C211.642 58.3655 211.458 58.1816 211.223 58.049C210.991 57.9131 210.721 57.8452 210.412 57.8452C210.091 57.8452 209.806 57.9197 209.557 58.0689C209.312 58.2147 209.12 58.4119 208.98 58.6605C208.841 58.9058 208.77 59.1792 208.767 59.4808V60.7287C208.767 61.1065 208.836 61.433 208.975 61.7081C209.118 61.9832 209.319 62.1953 209.577 62.3445C209.836 62.4936 210.142 62.5682 210.497 62.5682C210.732 62.5682 210.948 62.535 211.143 62.4688C211.339 62.4025 211.506 62.303 211.645 62.1705C211.784 62.0379 211.891 61.8755 211.963 61.6832L213.922 61.8125C213.823 62.2831 213.619 62.6941 213.311 63.0455C213.006 63.3935 212.611 63.6652 212.127 63.8608C211.647 64.053 211.092 64.1491 210.462 64.1491ZM218.163 64.1243C217.583 64.1243 217.058 63.9751 216.587 63.6768C216.12 63.3752 215.748 62.9328 215.473 62.3494C215.202 61.7628 215.066 61.0436 215.066 60.1918C215.066 59.3168 215.207 58.5893 215.488 58.0092C215.77 57.4259 216.145 56.9901 216.612 56.7017C217.083 56.41 217.598 56.2642 218.158 56.2642C218.586 56.2642 218.942 56.3371 219.227 56.483C219.515 56.6255 219.747 56.8045 219.923 57.0199C220.102 57.232 220.238 57.4408 220.331 57.6463H220.395V53.8182H222.508V64H220.42V62.777H220.331C220.231 62.9891 220.09 63.1996 219.908 63.4084C219.729 63.6139 219.495 63.7846 219.207 63.9205C218.922 64.0563 218.574 64.1243 218.163 64.1243ZM218.834 62.4389C219.176 62.4389 219.464 62.3461 219.699 62.1605C219.938 61.9716 220.12 61.7081 220.246 61.37C220.375 61.032 220.44 60.6359 220.44 60.1818C220.44 59.7277 220.377 59.3333 220.251 58.9986C220.125 58.6638 219.943 58.4053 219.704 58.223C219.466 58.0407 219.176 57.9496 218.834 57.9496C218.486 57.9496 218.193 58.044 217.954 58.233C217.716 58.4219 217.535 58.6837 217.412 59.0185C217.29 59.3532 217.228 59.741 217.228 60.1818C217.228 60.6259 217.29 61.0187 217.412 61.3601C217.538 61.6982 217.719 61.9633 217.954 62.1555C218.193 62.3445 218.486 62.4389 218.834 62.4389Z" fill="#F1F1F1"/>
<path d="M252.667 40H367C372.523 40 377 44.4772 377 50V67C377 72.5228 372.523 77 367 77H252.667V40Z" fill="#F1F1F1"/>
<path d="M294.973 64H292.666L296.181 53.8182H298.955L302.465 64H300.159L297.608 56.1449H297.529L294.973 64ZM294.829 59.9979H300.278V61.6783H294.829V59.9979ZM306.746 64.1491C305.964 64.1491 305.291 63.9834 304.727 63.652C304.167 63.3172 303.736 62.8532 303.435 62.2599C303.137 61.6667 302.987 60.9839 302.987 60.2116C302.987 59.4295 303.138 58.7434 303.44 58.1534C303.745 57.5601 304.177 57.0978 304.737 56.7663C305.298 56.4316 305.964 56.2642 306.736 56.2642C307.402 56.2642 307.985 56.3852 308.486 56.6271C308.986 56.8691 309.382 57.2088 309.674 57.6463C309.966 58.0838 310.127 58.5975 310.156 59.1875H308.158C308.101 58.8063 307.952 58.4998 307.71 58.2678C307.472 58.0324 307.159 57.9148 306.771 57.9148C306.443 57.9148 306.156 58.0043 305.911 58.1832C305.669 58.3589 305.48 58.6158 305.344 58.9538C305.208 59.2919 305.14 59.7012 305.14 60.1818C305.14 60.669 305.206 61.0833 305.339 61.4247C305.475 61.7661 305.665 62.0263 305.911 62.2053C306.156 62.3842 306.443 62.4737 306.771 62.4737C307.013 62.4737 307.23 62.424 307.422 62.3246C307.618 62.2251 307.778 62.081 307.904 61.892C308.034 61.6998 308.118 61.4695 308.158 61.201H310.156C310.123 61.7843 309.964 62.2981 309.679 62.7422C309.397 63.183 309.008 63.5277 308.511 63.7763C308.014 64.0249 307.425 64.1491 306.746 64.1491ZM315.574 56.3636V57.9545H310.975V56.3636H315.574ZM312.02 54.5341H314.137V61.6534C314.137 61.849 314.167 62.0014 314.227 62.1108C314.287 62.2169 314.369 62.2914 314.475 62.3345C314.585 62.3776 314.711 62.3991 314.853 62.3991C314.953 62.3991 315.052 62.3909 315.152 62.3743C315.251 62.3544 315.327 62.3395 315.38 62.3295L315.713 63.9055C315.607 63.9387 315.458 63.9768 315.266 64.0199C315.074 64.0663 314.84 64.0945 314.565 64.1044C314.055 64.1243 313.607 64.0563 313.223 63.9006C312.841 63.7448 312.545 63.5028 312.333 63.1747C312.121 62.8466 312.016 62.4323 312.02 61.9318V54.5341ZM321.851 60.7486V56.3636H323.969V64H321.935V62.6129H321.856C321.683 63.0604 321.397 63.42 320.996 63.6918C320.598 63.9635 320.112 64.0994 319.539 64.0994C319.029 64.0994 318.58 63.9834 318.192 63.7514C317.804 63.5194 317.501 63.1896 317.282 62.7621C317.067 62.3345 316.957 61.8224 316.954 61.2259V56.3636H319.072V60.848C319.075 61.2988 319.196 61.6551 319.435 61.9169C319.673 62.1787 319.993 62.3097 320.394 62.3097C320.649 62.3097 320.888 62.2517 321.11 62.1357C321.332 62.0163 321.511 61.8407 321.647 61.6087C321.786 61.3767 321.854 61.09 321.851 60.7486ZM327.84 64.1442C327.353 64.1442 326.919 64.0597 326.538 63.8906C326.157 63.7183 325.855 63.4647 325.633 63.13C325.414 62.7919 325.305 62.371 325.305 61.8672C325.305 61.4429 325.383 61.0866 325.539 60.7983C325.694 60.5099 325.906 60.2779 326.175 60.1023C326.443 59.9266 326.748 59.794 327.09 59.7045C327.434 59.6151 327.796 59.5521 328.173 59.5156C328.618 59.4692 328.976 59.4261 329.247 59.3864C329.519 59.3433 329.716 59.2803 329.839 59.1974C329.962 59.1146 330.023 58.992 330.023 58.8295V58.7997C330.023 58.4848 329.923 58.2412 329.725 58.0689C329.529 57.8965 329.251 57.8104 328.889 57.8104C328.508 57.8104 328.205 57.8949 327.98 58.0639C327.754 58.2296 327.605 58.4384 327.532 58.6903L325.573 58.5312C325.673 58.0672 325.868 57.6662 326.16 57.3281C326.452 56.9867 326.828 56.7249 327.289 56.5426C327.753 56.357 328.289 56.2642 328.899 56.2642C329.324 56.2642 329.73 56.3139 330.117 56.4134C330.508 56.5128 330.855 56.6669 331.156 56.8757C331.461 57.0845 331.702 57.353 331.877 57.6811C332.053 58.0059 332.141 58.3954 332.141 58.8494V64H330.132V62.9411H330.073C329.95 63.1797 329.786 63.3902 329.58 63.5724C329.375 63.7514 329.128 63.8923 328.84 63.995C328.551 64.0945 328.218 64.1442 327.84 64.1442ZM328.447 62.6825C328.758 62.6825 329.034 62.6212 329.272 62.4986C329.511 62.3726 329.698 62.2036 329.834 61.9915C329.97 61.7794 330.038 61.5391 330.038 61.2706V60.4602C329.972 60.5033 329.88 60.5431 329.764 60.5795C329.652 60.6127 329.524 60.6442 329.382 60.674C329.239 60.7005 329.097 60.7254 328.954 60.7486C328.811 60.7685 328.682 60.7867 328.566 60.8033C328.318 60.8397 328.101 60.8977 327.915 60.9773C327.729 61.0568 327.585 61.1645 327.482 61.3004C327.38 61.433 327.328 61.5987 327.328 61.7976C327.328 62.0859 327.433 62.3063 327.641 62.4588C327.854 62.608 328.122 62.6825 328.447 62.6825ZM335.902 53.8182V64H333.784V53.8182H335.902Z" fill="black"/>
</g>
<defs>
<filter id="filter0_d_1278_8741" x="0" y="0" width="381" height="48" filterUnits="userSpaceOnUse" color-interpolation-filters="sRGB">
<feFlood flood-opacity="0" result="BackgroundImageFix"/>
<feColorMatrix in="SourceAlpha" type="matrix" values="0 0 0 0 0 0 0 0 0 0 0 0 0 0 0 0 0 0 127 0" result="hardAlpha"/>
<feOffset dy="4"/>
<feGaussianBlur stdDeviation="2"/>
<feComposite in2="hardAlpha" operator="out"/>
<feColorMatrix type="matrix" values="0 0 0 0 0 0 0 0 0 0 0 0 0 0 0 0 0 0 0.25 0"/>
<feBlend mode="normal" in2="BackgroundImageFix" result="effect1_dropShadow_1278_8741"/>
<feBlend mode="normal" in="SourceGraphic" in2="effect1_dropShadow_1278_8741" result="shape"/>
</filter>
<filter id="filter1_d_1278_8741" x="0" y="40" width="381" height="45" filterUnits="userSpaceOnUse" color-interpolation-filters="sRGB">
<feFlood flood-opacity="0" result="BackgroundImageFix"/>
<feColorMatrix in="SourceAlpha" type="matrix" values="0 0 0 0 0 0 0 0 0 0 0 0 0 0 0 0 0 0 127 0" result="hardAlpha"/>
<feOffset dy="4"/>
<feGaussianBlur stdDeviation="2"/>
<feComposite in2="hardAlpha" operator="out"/>
<feColorMatrix type="matrix" values="0 0 0 0 0 0 0 0 0 0 0 0 0 0 0 0 0 0 0.25 0"/>
<feBlend mode="normal" in2="BackgroundImageFix" result="effect1_dropShadow_1278_8741"/>
<feBlend mode="normal" in="SourceGraphic" in2="effect1_dropShadow_1278_8741" result="shape"/>
</filter>
<clipPath id="clip0_1278_8741">
<rect width="24" height="24" fill="white" transform="translate(24 8)"/>
</clipPath>
<clipPath id="clip1_1278_8741">
<rect width="24" height="24" fill="white" transform="translate(333 8)"/>
</clipPath>
</defs>
</svg>
